<?xml version="1.0" encoding="UTF-8" standalone="no"?>
<!-- Created with Inkscape (http://www.inkscape.org/) -->

<svg
   xmlns:dc="http://purl.org/dc/elements/1.1/"
   xmlns:cc="http://creativecommons.org/ns#"
   xmlns:rdf="http://www.w3.org/1999/02/22-rdf-syntax-ns#"
   xmlns:svg="http://www.w3.org/2000/svg"
   xmlns="http://www.w3.org/2000/svg"
   xmlns:sodipodi="http://sodipodi.sourceforge.net/DTD/sodipodi-0.dtd"
   xmlns:inkscape="http://www.inkscape.org/namespaces/inkscape"
   id="svg2"
   version="1.1"
   inkscape:version="0.48.4 r9939"
   width="645.10248"
   height="517.5"
   xml:space="preserve"
   sodipodi:docname="aging_func.svg"><metadata
     id="metadata8"><rdf:RDF><cc:Work
         rdf:about=""><dc:format>image/svg+xml</dc:format><dc:type
           rdf:resource="http://purl.org/dc/dcmitype/StillImage" /><dc:title /></cc:Work></rdf:RDF></metadata><defs
     id="defs6"><clipPath
       clipPathUnits="userSpaceOnUse"
       id="clipPath16"><path
         d="M 0,0 517,0 517,414 0,414 0,0 z"
         id="path18"
         inkscape:connector-curvature="0" /></clipPath><clipPath
       clipPathUnits="userSpaceOnUse"
       id="clipPath20"><path
         d="M 0.918,414 517,414 517,0 0.918,0 l 0,414 z"
         id="path22"
         inkscape:connector-curvature="0" /></clipPath><clipPath
       clipPathUnits="userSpaceOnUse"
       id="clipPath24"><path
         d="M 0,0 517,0 517,414 0,414 0,0 z"
         id="path26"
         inkscape:connector-curvature="0" /></clipPath><clipPath
       clipPathUnits="userSpaceOnUse"
       id="clipPath28"><path
         d="m 66.918,399.582 446.414,0 0,-349 -446.414,0 0,349 z"
         id="path30"
         inkscape:connector-curvature="0" /></clipPath><clipPath
       clipPathUnits="userSpaceOnUse"
       id="clipPath32"><path
         d="M 0,0 517,0 517,414 0,414 0,0 z"
         id="path34"
         inkscape:connector-curvature="0" /></clipPath><clipPath
       clipPathUnits="userSpaceOnUse"
       id="clipPath36"><path
         d="m 0.898,0 0,414 L 517,414 517,0 0.898,0 z"
         id="path38"
         inkscape:connector-curvature="0" /></clipPath><clipPath
       clipPathUnits="userSpaceOnUse"
       id="clipPath40"><path
         d="M 0,0 517,0 517,414 0,414 0,0 z"
         id="path42"
         inkscape:connector-curvature="0" /></clipPath></defs><sodipodi:namedview
     pagecolor="#ffffff"
     bordercolor="#666666"
     borderopacity="1"
     objecttolerance="10"
     gridtolerance="10"
     guidetolerance="10"
     inkscape:pageopacity="0"
     inkscape:pageshadow="2"
     inkscape:window-width="1855"
     inkscape:window-height="1056"
     id="namedview4"
     showgrid="false"
     fit-margin-top="0"
     fit-margin-left="0"
     fit-margin-right="0"
     fit-margin-bottom="0"
     inkscape:zoom="0.85618855"
     inkscape:cx="711.99201"
     inkscape:cy="186.92556"
     inkscape:window-x="65"
     inkscape:window-y="24"
     inkscape:window-maximized="1"
     inkscape:current-layer="g12" /><g
     id="g10"
     inkscape:groupmode="layer"
     inkscape:label="aging_func"
     transform="matrix(1.25,0,0,-1.25,7.6025,517.5)"><g
       id="g12"
       transform="translate(-7,0)"><g
         id="g14" /><g
         id="g44"><g
           clip-path="url(#clipPath16)"
           id="g46"><g
             id="g48"><g
               clip-path="url(#clipPath20)"
               id="g50"><g
                 id="g52"><g
                   id="g54" /><g
                   id="g56"><g
                     clip-path="url(#clipPath24)"
                     id="g58"><g
                       id="g60"><path
                         d="M 0.918,414 517,414 517,0 0.918,0 l 0,414 z"
                         style="fill:#ffffff;fill-opacity:1;fill-rule:nonzero;stroke:none"
                         id="path62"
                         inkscape:connector-curvature="0" /><path
                         d="m 66.918,399.582 446.332,0 0,-348.914 -446.332,0 0,348.914 z"
                         style="fill:#ffffff;fill-opacity:1;fill-rule:evenodd;stroke:none"
                         id="path64"
                         inkscape:connector-curvature="0" /><g
                         transform="translate(0,414)"
                         id="g66"><path
                           d="m 66.918,-363.332 0,348.914 446.332,0 0,-348.914 -446.332,0"
                           style="fill:none;stroke:#ffffff;stroke-width:2;stroke-linecap:butt;stroke-linejoin:round;stroke-miterlimit:10;stroke-opacity:1;stroke-dasharray:none"
                           id="path68"
                           inkscape:connector-curvature="0" /></g><g
                         transform="translate(0,414)"
                         id="g70"><path
                           d="m 66.918,-14.418 446.332,0"
                           style="fill:none;stroke:#000000;stroke-width:2;stroke-linecap:butt;stroke-linejoin:round;stroke-miterlimit:10;stroke-opacity:1;stroke-dasharray:none"
                           id="path72"
                           inkscape:connector-curvature="0" /></g><g
                         transform="translate(0,414)"
                         id="g74"><path
                           d="m 66.918,-363.332 446.332,0"
                           style="fill:none;stroke:#000000;stroke-width:2;stroke-linecap:butt;stroke-linejoin:round;stroke-miterlimit:10;stroke-opacity:1;stroke-dasharray:none"
                           id="path76"
                           inkscape:connector-curvature="0" /></g><g
                         transform="translate(0,414)"
                         id="g78"><path
                           d="m 513.25,-363.332 0,348.914"
                           style="fill:none;stroke:#000000;stroke-width:2;stroke-linecap:butt;stroke-linejoin:round;stroke-miterlimit:10;stroke-opacity:1;stroke-dasharray:none"
                           id="path80"
                           inkscape:connector-curvature="0" /></g><g
                         transform="translate(0,414)"
                         id="g82"><path
                           d="m 66.918,-363.332 0,348.914"
                           style="fill:none;stroke:#000000;stroke-width:2;stroke-linecap:butt;stroke-linejoin:round;stroke-miterlimit:10;stroke-opacity:1;stroke-dasharray:none"
                           id="path84"
                           inkscape:connector-curvature="0" /></g><g
                         transform="translate(0,414)"
                         id="g86"><path
                           d="m 66.918,-363.332 446.332,0"
                           style="fill:none;stroke:#000000;stroke-width:2;stroke-linecap:butt;stroke-linejoin:round;stroke-miterlimit:10;stroke-opacity:1;stroke-dasharray:none"
                           id="path88"
                           inkscape:connector-curvature="0" /></g><g
                         transform="translate(0,414)"
                         id="g90"><path
                           d="m 66.918,-363.332 0,348.914"
                           style="fill:none;stroke:#000000;stroke-width:2;stroke-linecap:butt;stroke-linejoin:round;stroke-miterlimit:10;stroke-opacity:1;stroke-dasharray:none"
                           id="path92"
                           inkscape:connector-curvature="0" /></g><g
                         transform="translate(0,414)"
                         id="g94"><path
                           d="m 66.918,-363.332 0,4.5"
                           style="fill:none;stroke:#000000;stroke-width:2;stroke-linecap:butt;stroke-linejoin:round;stroke-miterlimit:10;stroke-opacity:1;stroke-dasharray:none"
                           id="path96"
                           inkscape:connector-curvature="0" /></g><g
                         transform="translate(0,414)"
                         id="g98"><path
                           d="m 66.918,-14.418 0,-4.414"
                           style="fill:none;stroke:#000000;stroke-width:2;stroke-linecap:butt;stroke-linejoin:round;stroke-miterlimit:10;stroke-opacity:1;stroke-dasharray:none"
                           id="path100"
                           inkscape:connector-curvature="0" /></g><text
                         transform="matrix(1,0,0,-1,61.4168,29.25)"
                         id="text102"
                         sodipodi:linespacing="125%"
                         style="line-height:125%"><tspan
                           style="font-size:20px;font-style:normal;font-variant:normal;font-weight:bold;font-stretch:normal;text-align:start;line-height:125%;writing-mode:lr-tb;text-anchor:start;fill:#000000;fill-opacity:1;fill-rule:nonzero;stroke:none;font-family:Times New Roman;-inkscape-font-specification:'Times New Roman, Bold'"
                           x="0"
                           y="0"
                           id="tspan104">0</tspan></text>
<g
                         transform="translate(0,414)"
                         id="g106"><path
                           d="m 136.582,-363.332 0,4.5"
                           style="fill:none;stroke:#000000;stroke-width:2;stroke-linecap:butt;stroke-linejoin:round;stroke-miterlimit:10;stroke-opacity:1;stroke-dasharray:none"
                           id="path108"
                           inkscape:connector-curvature="0" /></g><g
                         transform="translate(0,414)"
                         id="g110"><path
                           d="m 136.582,-14.418 0,-4.414"
                           style="fill:none;stroke:#000000;stroke-width:2;stroke-linecap:butt;stroke-linejoin:round;stroke-miterlimit:10;stroke-opacity:1;stroke-dasharray:none"
                           id="path112"
                           inkscape:connector-curvature="0" /></g><text
                         transform="matrix(1,0,0,-1,131.083,29.25)"
                         id="text114"
                         sodipodi:linespacing="125%"
                         style="line-height:125%"><tspan
                           style="font-size:20px;font-style:normal;font-variant:normal;font-weight:bold;font-stretch:normal;text-align:start;line-height:125%;writing-mode:lr-tb;text-anchor:start;fill:#000000;fill-opacity:1;fill-rule:nonzero;stroke:none;font-family:Times New Roman;-inkscape-font-specification:'Times New Roman, Bold'"
                           x="0"
                           y="0"
                           id="tspan116">1</tspan></text>
<g
                         transform="translate(0,414)"
                         id="g118"><path
                           d="m 206.332,-363.332 0,4.5"
                           style="fill:none;stroke:#000000;stroke-width:2;stroke-linecap:butt;stroke-linejoin:round;stroke-miterlimit:10;stroke-opacity:1;stroke-dasharray:none"
                           id="path120"
                           inkscape:connector-curvature="0" /></g><g
                         transform="translate(0,414)"
                         id="g122"><path
                           d="m 206.332,-14.418 0,-4.414"
                           style="fill:none;stroke:#000000;stroke-width:2;stroke-linecap:butt;stroke-linejoin:round;stroke-miterlimit:10;stroke-opacity:1;stroke-dasharray:none"
                           id="path124"
                           inkscape:connector-curvature="0" /></g><text
                         transform="matrix(1,0,0,-1,200.833,29.25)"
                         id="text126"
                         sodipodi:linespacing="125%"
                         style="line-height:125%"><tspan
                           style="font-size:20px;font-style:normal;font-variant:normal;font-weight:bold;font-stretch:normal;text-align:start;line-height:125%;writing-mode:lr-tb;text-anchor:start;fill:#000000;fill-opacity:1;fill-rule:nonzero;stroke:none;font-family:Times New Roman;-inkscape-font-specification:'Times New Roman, Bold'"
                           x="0"
                           y="0"
                           id="tspan128">2</tspan></text>
<g
                         transform="translate(0,414)"
                         id="g130"><path
                           d="m 276.082,-363.332 0,4.5"
                           style="fill:none;stroke:#000000;stroke-width:2;stroke-linecap:butt;stroke-linejoin:round;stroke-miterlimit:10;stroke-opacity:1;stroke-dasharray:none"
                           id="path132"
                           inkscape:connector-curvature="0" /></g><g
                         transform="translate(0,414)"
                         id="g134"><path
                           d="m 276.082,-14.418 0,-4.414"
                           style="fill:none;stroke:#000000;stroke-width:2;stroke-linecap:butt;stroke-linejoin:round;stroke-miterlimit:10;stroke-opacity:1;stroke-dasharray:none"
                           id="path136"
                           inkscape:connector-curvature="0" /></g><text
                         transform="matrix(1,0,0,-1,270.583,29.25)"
                         id="text138"
                         sodipodi:linespacing="125%"
                         style="line-height:125%"><tspan
                           style="font-size:20px;font-style:normal;font-variant:normal;font-weight:bold;font-stretch:normal;text-align:start;line-height:125%;writing-mode:lr-tb;text-anchor:start;fill:#000000;fill-opacity:1;fill-rule:nonzero;stroke:none;font-family:Times New Roman;-inkscape-font-specification:'Times New Roman, Bold'"
                           x="0"
                           y="0"
                           id="tspan140">3</tspan></text>
<g
                         transform="translate(0,414)"
                         id="g142"><path
                           d="m 345.832,-363.332 0,4.5"
                           style="fill:none;stroke:#000000;stroke-width:2;stroke-linecap:butt;stroke-linejoin:round;stroke-miterlimit:10;stroke-opacity:1;stroke-dasharray:none"
                           id="path144"
                           inkscape:connector-curvature="0" /></g><g
                         transform="translate(0,414)"
                         id="g146"><path
                           d="m 345.832,-14.418 0,-4.414"
                           style="fill:none;stroke:#000000;stroke-width:2;stroke-linecap:butt;stroke-linejoin:round;stroke-miterlimit:10;stroke-opacity:1;stroke-dasharray:none"
                           id="path148"
                           inkscape:connector-curvature="0" /></g><text
                         transform="matrix(1,0,0,-1,340.333,29.25)"
                         id="text150"
                         style="font-size:20px;font-style:normal;font-variant:normal;font-weight:bold;font-stretch:normal;text-align:start;line-height:125%;writing-mode:lr-tb;text-anchor:start;font-family:Times New Roman;-inkscape-font-specification:'Times New Roman, Bold'"
                         sodipodi:linespacing="125%"><tspan
                           style="font-size:20px;font-style:normal;font-variant:normal;font-weight:bold;font-stretch:normal;text-align:start;line-height:125%;writing-mode:lr-tb;text-anchor:start;fill:#000000;fill-opacity:1;fill-rule:nonzero;stroke:none;font-family:Times New Roman;-inkscape-font-specification:'Times New Roman, Bold'"
                           x="0"
                           y="0"
                           id="tspan152">4</tspan></text>
<g
                         transform="translate(0,414)"
                         id="g154"><path
                           d="m 415.582,-363.332 0,4.5"
                           style="fill:none;stroke:#000000;stroke-width:2;stroke-linecap:butt;stroke-linejoin:round;stroke-miterlimit:10;stroke-opacity:1;stroke-dasharray:none"
                           id="path156"
                           inkscape:connector-curvature="0" /></g><g
                         transform="translate(0,414)"
                         id="g158"><path
                           d="m 415.582,-14.418 0,-4.414"
                           style="fill:none;stroke:#000000;stroke-width:2;stroke-linecap:butt;stroke-linejoin:round;stroke-miterlimit:10;stroke-opacity:1;stroke-dasharray:none"
                           id="path160"
                           inkscape:connector-curvature="0" /></g><text
                         transform="matrix(1,0,0,-1,410.083,29.25)"
                         id="text162"
                         sodipodi:linespacing="125%"
                         style="line-height:125%"><tspan
                           style="font-size:20px;font-style:normal;font-variant:normal;font-weight:bold;font-stretch:normal;text-align:start;line-height:125%;writing-mode:lr-tb;text-anchor:start;fill:#000000;fill-opacity:1;fill-rule:nonzero;stroke:none;font-family:Times New Roman;-inkscape-font-specification:'Times New Roman, Bold'"
                           x="0"
                           y="0"
                           id="tspan164">5</tspan></text>
<g
                         transform="translate(0,414)"
                         id="g166"><path
                           d="m 485.332,-363.332 0,4.5"
                           style="fill:none;stroke:#000000;stroke-width:2;stroke-linecap:butt;stroke-linejoin:round;stroke-miterlimit:10;stroke-opacity:1;stroke-dasharray:none"
                           id="path168"
                           inkscape:connector-curvature="0" /></g><g
                         transform="translate(0,414)"
                         id="g170"><path
                           d="m 485.332,-14.418 0,-4.414"
                           style="fill:none;stroke:#000000;stroke-width:2;stroke-linecap:butt;stroke-linejoin:round;stroke-miterlimit:10;stroke-opacity:1;stroke-dasharray:none"
                           id="path172"
                           inkscape:connector-curvature="0" /></g><text
                         transform="matrix(1,0,0,-1,479.833,29.25)"
                         id="text174"
                         sodipodi:linespacing="125%"
                         style="line-height:125%"><tspan
                           style="font-size:20px;font-variant:normal;font-weight:normal;writing-mode:lr-tb;fill:#000000;fill-opacity:1;fill-rule:nonzero;stroke:none;font-family:Nimbus Sans L;-inkscape-font-specification:NimbusSansL"
                           x="0"
                           y="0"
                           id="tspan176"><tspan
                             style="font-size:20px;font-style:normal;font-variant:normal;font-weight:bold;font-stretch:normal;text-align:start;line-height:125%;writing-mode:lr-tb;text-anchor:start;font-family:Times New Roman;-inkscape-font-specification:'Times New Roman, Bold'"
                             id="tspan3439">6</tspan></tspan><tspan
                           style="font-size:20px;font-style:normal;font-variant:normal;font-weight:bold;font-stretch:normal;text-align:start;line-height:125%;writing-mode:lr-tb;text-anchor:start;fill:#000000;fill-opacity:1;fill-rule:nonzero;stroke:none;font-family:Times New Roman;-inkscape-font-specification:'Times New Roman, Bold'"
                           x="-11.6664 3.8936 15.0136"
                           y="29.1668"
                           sodipodi:role="line"
                           id="tspan178">x10</tspan></text>
<text
                         transform="matrix(1,0,0,-1,505.9166,12.4168)"
                         id="text180"
                         sodipodi:linespacing="125%"
                         style="line-height:125%"><tspan
                           style="font-size:13.33329964px;font-style:normal;font-variant:normal;font-weight:bold;font-stretch:normal;text-align:start;line-height:125%;writing-mode:lr-tb;text-anchor:start;fill:#000000;fill-opacity:1;fill-rule:nonzero;stroke:none;font-family:Times New Roman;-inkscape-font-specification:'Times New Roman, Bold'"
                           x="0"
                           y="0"
                           id="tspan182">4</tspan></text>
<g
                         transform="translate(0,414)"
                         id="g184"><path
                           d="m 66.918,-363.332 4.414,0"
                           style="fill:none;stroke:#000000;stroke-width:2;stroke-linecap:butt;stroke-linejoin:round;stroke-miterlimit:10;stroke-opacity:1;stroke-dasharray:none"
                           id="path186"
                           inkscape:connector-curvature="0" /></g><g
                         transform="translate(0,414)"
                         id="g188"><path
                           d="m 513.25,-363.332 -4.5,0"
                           style="fill:none;stroke:#000000;stroke-width:2;stroke-linecap:butt;stroke-linejoin:round;stroke-miterlimit:10;stroke-opacity:1;stroke-dasharray:none"
                           id="path190"
                           inkscape:connector-curvature="0" /></g><text
                         transform="matrix(1,0,0,-1,52.9168,43.25)"
                         id="text192"
                         sodipodi:linespacing="125%"
                         style="line-height:125%"><tspan
                           style="font-size:20px;font-style:normal;font-variant:normal;font-weight:bold;font-stretch:normal;text-align:start;line-height:125%;writing-mode:lr-tb;text-anchor:start;fill:#000000;fill-opacity:1;fill-rule:nonzero;stroke:none;font-family:Times New Roman;-inkscape-font-specification:'Times New Roman, Bold'"
                           x="0"
                           y="0"
                           id="tspan194">0</tspan></text>
<g
                         transform="translate(0,414)"
                         id="g196"><path
                           d="m 66.918,-293.5 4.414,0"
                           style="fill:none;stroke:#000000;stroke-width:2;stroke-linecap:butt;stroke-linejoin:round;stroke-miterlimit:10;stroke-opacity:1;stroke-dasharray:none"
                           id="path198"
                           inkscape:connector-curvature="0" /></g><g
                         transform="translate(0,414)"
                         id="g200"><path
                           d="m 513.25,-293.5 -4.5,0"
                           style="fill:none;stroke:#000000;stroke-width:2;stroke-linecap:butt;stroke-linejoin:round;stroke-miterlimit:10;stroke-opacity:1;stroke-dasharray:none"
                           id="path202"
                           inkscape:connector-curvature="0" /></g><text
                         transform="matrix(1,0,0,-1,30.6668,113.083)"
                         id="text204"
                         sodipodi:linespacing="125%"
                         style="line-height:125%"><tspan
                           style="font-size:20px;font-style:normal;font-variant:normal;font-weight:bold;font-stretch:normal;text-align:start;line-height:125%;writing-mode:lr-tb;text-anchor:start;fill:#000000;fill-opacity:1;fill-rule:nonzero;stroke:none;font-family:Times New Roman;-inkscape-font-specification:'Times New Roman, Bold'"
                           x="0 11.12 22.24"
                           y="0"
                           sodipodi:role="line"
                           id="tspan206">100</tspan></text>
<g
                         transform="translate(0,414)"
                         id="g208"><path
                           d="m 66.918,-223.75 4.414,0"
                           style="fill:none;stroke:#000000;stroke-width:2;stroke-linecap:butt;stroke-linejoin:round;stroke-miterlimit:10;stroke-opacity:1;stroke-dasharray:none"
                           id="path210"
                           inkscape:connector-curvature="0" /></g><g
                         transform="translate(0,414)"
                         id="g212"><path
                           d="m 513.25,-223.75 -4.5,0"
                           style="fill:none;stroke:#000000;stroke-width:2;stroke-linecap:butt;stroke-linejoin:round;stroke-miterlimit:10;stroke-opacity:1;stroke-dasharray:none"
                           id="path214"
                           inkscape:connector-curvature="0" /></g><text
                         transform="matrix(1,0,0,-1,30.6668,182.833)"
                         id="text216"
                         sodipodi:linespacing="125%"
                         style="line-height:125%"><tspan
                           style="font-size:20px;font-style:normal;font-variant:normal;font-weight:bold;font-stretch:normal;text-align:start;line-height:125%;writing-mode:lr-tb;text-anchor:start;fill:#000000;fill-opacity:1;fill-rule:nonzero;stroke:none;font-family:Times New Roman;-inkscape-font-specification:'Times New Roman, Bold'"
                           x="0 11.12 22.24"
                           y="0"
                           sodipodi:role="line"
                           id="tspan218">200</tspan></text>
<g
                         transform="translate(0,414)"
                         id="g220"><path
                           d="m 66.918,-153.918 4.414,0"
                           style="fill:none;stroke:#000000;stroke-width:2;stroke-linecap:butt;stroke-linejoin:round;stroke-miterlimit:10;stroke-opacity:1;stroke-dasharray:none"
                           id="path222"
                           inkscape:connector-curvature="0" /></g><g
                         transform="translate(0,414)"
                         id="g224"><path
                           d="m 513.25,-153.918 -4.5,0"
                           style="fill:none;stroke:#000000;stroke-width:2;stroke-linecap:butt;stroke-linejoin:round;stroke-miterlimit:10;stroke-opacity:1;stroke-dasharray:none"
                           id="path226"
                           inkscape:connector-curvature="0" /></g><text
                         transform="matrix(1,0,0,-1,30.6668,252.667)"
                         id="text228"
                         sodipodi:linespacing="125%"
                         style="line-height:125%"><tspan
                           style="font-size:20px;font-style:normal;font-variant:normal;font-weight:bold;font-stretch:normal;text-align:start;line-height:125%;writing-mode:lr-tb;text-anchor:start;fill:#000000;fill-opacity:1;fill-rule:nonzero;stroke:none;font-family:Times New Roman;-inkscape-font-specification:'Times New Roman, Bold'"
                           x="0 11.12 22.24"
                           y="0"
                           sodipodi:role="line"
                           id="tspan230">300</tspan></text>
<g
                         transform="translate(0,414)"
                         id="g232"><path
                           d="m 66.918,-84.168 4.414,0"
                           style="fill:none;stroke:#000000;stroke-width:2;stroke-linecap:butt;stroke-linejoin:round;stroke-miterlimit:10;stroke-opacity:1;stroke-dasharray:none"
                           id="path234"
                           inkscape:connector-curvature="0" /></g><g
                         transform="translate(0,414)"
                         id="g236"><path
                           d="m 513.25,-84.168 -4.5,0"
                           style="fill:none;stroke:#000000;stroke-width:2;stroke-linecap:butt;stroke-linejoin:round;stroke-miterlimit:10;stroke-opacity:1;stroke-dasharray:none"
                           id="path238"
                           inkscape:connector-curvature="0" /></g><text
                         transform="matrix(1,0,0,-1,30.6668,322.417)"
                         id="text240"
                         sodipodi:linespacing="125%"
                         style="line-height:125%"><tspan
                           style="font-size:20px;font-style:normal;font-variant:normal;font-weight:bold;font-stretch:normal;text-align:start;line-height:125%;writing-mode:lr-tb;text-anchor:start;fill:#000000;fill-opacity:1;fill-rule:nonzero;stroke:none;font-family:Times New Roman;-inkscape-font-specification:'Times New Roman, Bold'"
                           x="0 11.12 22.24"
                           y="0"
                           sodipodi:role="line"
                           id="tspan242">400</tspan></text>
<g
                         transform="translate(0,414)"
                         id="g244"><path
                           d="m 66.918,-14.418 4.414,0"
                           style="fill:none;stroke:#000000;stroke-width:2;stroke-linecap:butt;stroke-linejoin:round;stroke-miterlimit:10;stroke-opacity:1;stroke-dasharray:none"
                           id="path246"
                           inkscape:connector-curvature="0" /></g><g
                         transform="translate(0,414)"
                         id="g248"><path
                           d="m 513.25,-14.418 -4.5,0"
                           style="fill:none;stroke:#000000;stroke-width:2;stroke-linecap:butt;stroke-linejoin:round;stroke-miterlimit:10;stroke-opacity:1;stroke-dasharray:none"
                           id="path250"
                           inkscape:connector-curvature="0" /></g><text
                         transform="matrix(1,0,0,-1,30.6668,392.167)"
                         id="text252"
                         sodipodi:linespacing="125%"
                         style="line-height:125%"><tspan
                           style="font-size:20px;font-style:normal;font-variant:normal;font-weight:bold;font-stretch:normal;text-align:start;line-height:125%;writing-mode:lr-tb;text-anchor:start;fill:#000000;fill-opacity:1;fill-rule:nonzero;stroke:none;font-family:Times New Roman;-inkscape-font-specification:'Times New Roman, Bold'"
                           x="0 11.12 22.24"
                           y="0"
                           sodipodi:role="line"
                           id="tspan254">500</tspan></text>
<g
                         transform="translate(0,414)"
                         id="g256"><path
                           d="m 66.918,-14.418 446.332,0"
                           style="fill:none;stroke:#000000;stroke-width:2;stroke-linecap:butt;stroke-linejoin:round;stroke-miterlimit:10;stroke-opacity:1;stroke-dasharray:none"
                           id="path258"
                           inkscape:connector-curvature="0" /></g><g
                         transform="translate(0,414)"
                         id="g260"><path
                           d="m 66.918,-363.332 446.332,0"
                           style="fill:none;stroke:#000000;stroke-width:2;stroke-linecap:butt;stroke-linejoin:round;stroke-miterlimit:10;stroke-opacity:1;stroke-dasharray:none"
                           id="path262"
                           inkscape:connector-curvature="0" /></g><g
                         transform="translate(0,414)"
                         id="g264"><path
                           d="m 513.25,-363.332 0,348.914"
                           style="fill:none;stroke:#000000;stroke-width:2;stroke-linecap:butt;stroke-linejoin:round;stroke-miterlimit:10;stroke-opacity:1;stroke-dasharray:none"
                           id="path266"
                           inkscape:connector-curvature="0" /></g><g
                         transform="translate(0,414)"
                         id="g268"><path
                           d="m 66.918,-363.332 0,348.914"
                           style="fill:none;stroke:#000000;stroke-width:2;stroke-linecap:butt;stroke-linejoin:round;stroke-miterlimit:10;stroke-opacity:1;stroke-dasharray:none"
                           id="path270"
                           inkscape:connector-curvature="0" /></g></g></g></g></g></g></g><g
             id="g272"><g
               clip-path="url(#clipPath28)"
               id="g274"><g
                 id="g276"><g
                   id="g278" /><g
                   id="g280"><g
                     clip-path="url(#clipPath32)"
                     id="g282"><g
                       id="g284"><g
                         transform="translate(0,414)"
                         id="g286"><path
                           d="m 488.332,-14.418 24.918,0"
                           style="fill:none;stroke:#0000ff;stroke-width:2;stroke-linecap:butt;stroke-linejoin:round;stroke-miterlimit:10;stroke-opacity:1;stroke-dasharray:none"
                           id="path288"
                           inkscape:connector-curvature="0" /></g><g
                         transform="translate(0,414)"
                         id="g290"><path
                           d="m 463.418,-14.5 6.832,0 0.082,0.082 18,0"
                           style="fill:none;stroke:#0000ff;stroke-width:2;stroke-linecap:butt;stroke-linejoin:round;stroke-miterlimit:10;stroke-opacity:1;stroke-dasharray:none"
                           id="path292"
                           inkscape:connector-curvature="0" /></g><g
                         transform="translate(0,414)"
                         id="g294"><path
                           d="m 438.5,-15.082 1.75,0 0.082,0.082 2.086,0 0.082,0.082 2.332,0 0.086,0.086 2.75,0 0.082,0.082 3.168,0 0.082,0.082 4.082,0 0.086,0.086 5.5,0 0.082,0.082 2.668,0"
                           style="fill:none;stroke:#0000ff;stroke-width:2;stroke-linecap:butt;stroke-linejoin:round;stroke-miterlimit:10;stroke-opacity:1;stroke-dasharray:none"
                           id="path296"
                           inkscape:connector-curvature="0" /></g><g
                         transform="translate(0,414)"
                         id="g298"><path
                           d="m 413.582,-17.082 0.418,0 0.082,0.082 0.586,0 0.082,0.082 0.668,0 0.082,0.086 0.668,0 0.082,0.082 0.668,0 0.082,0.082 0.668,0 0.082,0.086 0.75,0 0.082,0.082 0.668,0 0.082,0.082 0.836,0 0.082,0.086 0.75,0 0.082,0.082 0.836,0 0.082,0.082 0.832,0 0.086,0.086 0.914,0 0.086,0.082 0.914,0 0.086,0.082 0.914,0 0.086,0.086 1.082,0 0.082,0.082 1,0 0.086,0.082 1.164,0 0.086,0.086 1.164,0 0.086,0.082 1.25,0 0.082,0.082 1.418,0 0.082,0.086 1.418,0 0.082,0.082 1.582,0 0.086,0.082 1.664,0 0.086,0.086 0.082,0"
                           style="fill:none;stroke:#0000ff;stroke-width:2;stroke-linecap:butt;stroke-linejoin:round;stroke-miterlimit:10;stroke-opacity:1;stroke-dasharray:none"
                           id="path300"
                           inkscape:connector-curvature="0" /></g><g
                         transform="translate(0,414)"
                         id="g302"><path
                           d="m 388.668,-21.75 0.082,0.082 0.25,0 0.082,0.086 0.25,0 0.086,0.082 0.25,0 0.082,0.082 0.25,0 0.082,0.086 0.25,0 0.086,0.082 0.25,0 0.082,0.082 0.25,0 0.082,0.086 0.25,0 0.086,0.082 0.25,0 0.082,0.082 0.25,0 0.082,0.086 0.336,0 0.082,0.082 0.25,0 0.082,0.082 0.25,0 0.086,0.086 0.332,0 0.082,0.082 0.25,0 0.086,0.082 0.332,0 0.082,0.086 0.25,0 0.086,0.082 0.332,0 0.082,0.082 0.25,0 0.086,0.086 0.332,0 0.082,0.082 0.336,0 0.082,0.082 0.25,0 0.082,0.086 0.336,0 0.082,0.082 0.332,0 0.086,0.082 0.332,0 0.082,0.086 0.336,0 0.082,0.082 0.332,0 0.086,0.082 0.332,0 0.082,0.086 0.336,0 0.082,0.082 0.418,0 0.082,0.082 0.332,0 0.086,0.086 0.332,0 0.082,0.082 0.418,0 0.082,0.082 0.336,0 0.082,0.086 0.418,0 0.082,0.082 0.418,0 0.082,0.082 0.332,0 0.086,0.086 0.414,0 0.086,0.082 0.414,0 0.086,0.082 0.414,0 0.086,0.086 0.414,0 0.086,0.082 0.414,0 0.086,0.082 0.5,0 0.082,0.086 0.418,0 0.082,0.082 0.5,0 0.082,0.082 0.5,0 0.086,0.086 0.414,0 0.086,0.082 0.5,0 0.082,0.082 0.5,0 0.082,0.086 0.5,0 0.086,0.082 0.582,0 0.082,0.082 0.5,0 0.086,0.086 0.582,0 0.082,0.082 0.586,0 0.082,0.082 0.582,0 0.086,0.086 0.164,0"
                           style="fill:none;stroke:#0000ff;stroke-width:2;stroke-linecap:butt;stroke-linejoin:round;stroke-miterlimit:10;stroke-opacity:1;stroke-dasharray:none"
                           id="path304"
                           inkscape:connector-curvature="0" /></g><g
                         transform="translate(0,414)"
                         id="g306"><path
                           d="m 363.75,-30.5 0.082,0.082 0.168,0 0.082,0.086 0.086,0 0.082,0.082 0.082,0 0.086,0.082 0.082,0 0.082,0.086 0.086,0 0.082,0.082 0.168,0 0.082,0.082 0.082,0 0.086,0.086 0.082,0 0.082,0.082 0.086,0 0.082,0.082 0.168,0 0.082,0.086 0.082,0 0.086,0.082 0.082,0 0.082,0.082 0.168,0 0.082,0.086 0.086,0 0.082,0.082 0.082,0 0.086,0.082 0.164,0 0.086,0.086 0.082,0 0.082,0.082 0.086,0 0.082,0.082 0.168,0 0.082,0.086 0.082,0 0.086,0.082 0.082,0 0.082,0.082 0.168,0 0.082,0.086 0.086,0 0.082,0.082 0.168,0 0.082,0.082 0.082,0 0.086,0.086 0.082,0 0.082,0.082 0.168,0 0.082,0.082 0.086,0 0.082,0.086 0.168,0 0.082,0.082 0.082,0 0.086,0.082 0.164,0 0.086,0.086 0.082,0 0.082,0.082 0.168,0 0.082,0.082 0.086,0 0.082,0.086 0.168,0 0.082,0.082 0.082,0 0.086,0.082 0.164,0 0.086,0.086 0.082,0 0.082,0.082 0.168,0 0.082,0.082 0.168,0 0.082,0.086 0.086,0 0.082,0.082 0.168,0 0.082,0.082 0.082,0 0.086,0.086 0.164,0 0.086,0.082 0.164,0 0.086,0.082 0.082,0 0.082,0.086 0.168,0 0.082,0.082 0.168,0 0.082,0.082 0.086,0 0.082,0.086 0.168,0 0.082,0.082 0.168,0 0.082,0.082 0.168,0 0.082,0.086 0.082,0 0.086,0.082 0.164,0 0.086,0.082 0.164,0 0.086,0.086 0.164,0 0.086,0.082 0.082,0 0.082,0.082 0.168,0 0.082,0.086 0.168,0 0.082,0.082 0.168,0 0.082,0.082 0.168,0 0.082,0.086 0.168,0 0.082,0.082 0.168,0 0.082,0.082 0.168,0 0.082,0.086 0.168,0 0.082,0.082 0.086,0 0.082,0.082 0.168,0 0.082,0.086 0.168,0 0.082,0.082 0.168,0 0.082,0.082 0.168,0 0.082,0.086 0.25,0 0.082,0.082 0.168,0 0.082,0.082 0.168,0 0.082,0.086 0.168,0 0.082,0.082 0.168,0 0.082,0.082 0.168,0 0.082,0.086 0.168,0 0.082,0.082 0.168,0 0.082,0.082 0.25,0 0.086,0.086 0.164,0 0.086,0.082 0.164,0 0.086,0.082 0.164,0 0.086,0.086 0.25,0 0.082,0.082 0.168,0 0.082,0.082 0.168,0 0.082,0.086 0.168,0 0.082,0.082 0.25,0 0.082,0.082 0.168,0 0.082,0.086 0.25,0 0.086,0.082 0.164,0 0.086,0.082 0.25,0 0.082,0.086 0.168,0 0.082,0.082 0.25,0 0.082,0.082 0.168,0 0.082,0.086 0.25,0 0.086,0.082 0.164,0 0.086,0.082 0.25,0 0.082,0.086 0.25,0 0.082,0.082 0.168,0 0.082,0.082 0.25,0 0.086,0.086 0.25,0 0.082,0.082 0.168,0 0.082,0.082 0.25,0 0.082,0.086 0.25,0 0.086,0.082 0.25,0"
                           style="fill:none;stroke:#0000ff;stroke-width:2;stroke-linecap:butt;stroke-linejoin:round;stroke-miterlimit:10;stroke-opacity:1;stroke-dasharray:none"
                           id="path308"
                           inkscape:connector-curvature="0" /></g><g
                         transform="translate(0,414)"
                         id="g310"><path
                           d="m 338.832,-44.918 0.086,0.086 0.082,0 0.082,0.082 0.086,0.082 0.082,0.086 0.082,0 0.086,0.082 0.082,0.082 0.082,0 0.168,0.168 0.082,0 0.086,0.082 0.082,0.086 0.082,0.082 0.086,0 0.082,0.082 0.082,0.086 0.086,0 0.164,0.164 0.086,0 0.082,0.086 0.082,0.082 0.086,0 0.082,0.082 0.082,0.086 0.086,0.082 0.082,0 0.168,0.168 0.082,0 0.082,0.082 0.086,0.082 0.082,0 0.082,0.086 0.086,0.082 0.082,0 0.168,0.168 0.082,0 0.082,0.082 0.086,0.082 0.082,0 0.082,0.086 0.086,0.082 0.082,0 0.168,0.168 0.082,0 0.082,0.082 0.086,0.082 0.082,0 0.082,0.086 0.086,0.082 0.082,0 0.168,0.168 0.082,0 0.082,0.082 0.086,0.082 0.082,0 0.082,0.086 0.086,0.082 0.082,0 0.168,0.168 0.082,0 0.082,0.082 0.086,0 0.082,0.082 0.082,0.086 0.086,0 0.164,0.164 0.086,0 0.082,0.086 0.082,0.082 0.086,0 0.082,0.082 0.082,0.086 0.086,0 0.082,0.082 0.082,0 0.086,0.082 0.082,0.086 0.082,0 0.086,0.082 0.082,0.082 0.082,0 0.086,0.086 0.082,0 0.082,0.082 0.086,0.082 0.082,0 0.082,0.086 0.086,0.082 0.082,0 0.082,0.082 0.086,0 0.082,0.086 0.082,0.082 0.086,0 0.082,0.082 0.082,0.086 0.086,0 0.082,0.082 0.082,0 0.086,0.082 0.082,0.086 0.082,0 0.086,0.082 0.082,0 0.168,0.168 0.082,0 0.082,0.082 0.086,0 0.082,0.082 0.082,0.086 0.086,0 0.082,0.082 0.082,0 0.086,0.082 0.082,0.086 0.082,0 0.086,0.082 0.082,0 0.168,0.168 0.082,0 0.082,0.082 0.086,0 0.082,0.082 0.082,0.086 0.086,0 0.082,0.082 0.082,0 0.086,0.082 0.082,0.086 0.082,0 0.086,0.082 0.082,0 0.082,0.082 0.086,0 0.082,0.086 0.082,0.082 0.086,0 0.082,0.082 0.082,0 0.168,0.168 0.082,0 0.086,0.082 0.082,0 0.082,0.086 0.086,0 0.164,0.164 0.086,0 0.082,0.086 0.082,0 0.086,0.082 0.082,0 0.082,0.082 0.086,0 0.082,0.086 0.082,0.082 0.086,0 0.082,0.082 0.082,0 0.086,0.086 0.082,0 0.082,0.082 0.086,0 0.082,0.082 0.082,0.086 0.086,0 0.082,0.082 0.082,0 0.086,0.082 0.082,0 0.082,0.086 0.086,0 0.164,0.164 0.086,0 0.082,0.086 0.082,0 0.086,0.082 0.082,0 0.082,0.082 0.086,0 0.082,0.086 0.082,0 0.086,0.082 0.082,0.082 0.082,0 0.086,0.086 0.082,0 0.082,0.082 0.086,0 0.082,0.082 0.082,0 0.086,0.086 0.082,0 0.082,0.082 0.086,0 0.082,0.082 0.082,0 0.086,0.086 0.082,0 0.082,0.082 0.086,0.082 0.082,0 0.082,0.086 0.086,0 0.082,0.082 0.082,0 0.086,0.082 0.082,0 0.082,0.086 0.086,0 0.082,0.082 0.082,0 0.086,0.082 0.082,0 0.082,0.086 0.086,0 0.082,0.082 0.082,0 0.086,0.082 0.082,0 0.082,0.086 0.086,0 0.082,0.082 0.082,0 0.086,0.082 0.082,0 0.082,0.086 0.086,0 0.082,0.082 0.082,0 0.086,0.082 0.082,0 0.082,0.086 0.086,0 0.082,0.082 0.082,0 0.086,0.082 0.082,0 0.082,0.086 0.086,0 0.082,0.082 0.082,0 0.086,0.082 0.082,0 0.082,0.086 0.086,0 0.082,0.082 0.082,0 0.086,0.082 0.082,0 0.082,0.086 0.086,0 0.082,0.082 0.082,0 0.086,0.082 0.082,0 0.082,0.086 0.086,0 0.082,0.082 0.168,0 0.082,0.082 0.082,0 0.086,0.086 0.082,0 0.082,0.082 0.086,0 0.082,0.082 0.082,0 0.086,0.086 0.082,0 0.082,0.082 0.086,0 0.082,0.082 0.082,0 0.086,0.086 0.164,0 0.086,0.082 0.082,0 0.082,0.082 0.086,0 0.082,0.086 0.082,0 0.086,0.082 0.082,0"
                           style="fill:none;stroke:#0000ff;stroke-width:2;stroke-linecap:butt;stroke-linejoin:round;stroke-miterlimit:10;stroke-opacity:1;stroke-dasharray:none"
                           id="path312"
                           inkscape:connector-curvature="0" /></g><g
                         transform="translate(0,414)"
                         id="g314"><path
                           d="m 313.918,-66.168 0.082,0.086 0.082,0.082 0.086,0.082 0.082,0.086 0.082,0.082 0.086,0.082 0.082,0.086 0.082,0.082 0.086,0.082 0.082,0.086 0.082,0.082 0.086,0.082 0.082,0.086 0.082,0.082 0.086,0.082 0.082,0.086 0.082,0.082 0.086,0.082 0.082,0.086 0.082,0.082 0.086,0.082 0.082,0.086 0.082,0.082 0.086,0.082 0.082,0.086 0.082,0.082 0.086,0.082 0.082,0.086 0.082,0.082 0.086,0.082 0.082,0.086 0.082,0.082 0.086,0.082 0.082,0.086 0.082,0.082 0.086,0.082 0.082,0 0.082,0.086 0.086,0.082 0.082,0.082 0.082,0.086 0.086,0.082 0.082,0.082 0.082,0.086 0.086,0.082 0.082,0.082 0.082,0.086 0.086,0.082 0.082,0.082 0.082,0.086 0.086,0.082 0.082,0.082 0.082,0.086 0.086,0.082 0.082,0.082 0.082,0.086 0.086,0.082 0.082,0 1.168,1.168 0.082,0 0.082,0.082 0.086,0.082 0.082,0.086 0.082,0.082 0.086,0.082 0.082,0.086 0.082,0.082 0.086,0.082 0.082,0.086 0.082,0.082 0.086,0.082 0.082,0.086 0.082,0 0.086,0.082 0.082,0.082 0.082,0.086 0.086,0.082 0.082,0.082 0.082,0.086 0.086,0.082 0.082,0.082 0.082,0.086 0.086,0.082 0.082,0 0.75,0.75 0.082,0 0.086,0.082 0.082,0.086 0.082,0.082 0.086,0.082 0.082,0.086 0.082,0.082 0.086,0.082 0.082,0.086 0.082,0 0.086,0.082 0.082,0.082 0.082,0.086 0.086,0.082 0.082,0.082 0.082,0.086 0.086,0.082 0.082,0 0.582,0.582 0.086,0 0.082,0.086 0.082,0.082 0.086,0.082 0.082,0.086 0.082,0.082 0.086,0.082 0.082,0 0.082,0.086 0.086,0.082 0.082,0.082 0.082,0.086 0.086,0.082 0.082,0.082 0.082,0 0.5,0.5 0.086,0 0.082,0.086 0.082,0.082 0.086,0.082 0.082,0.086 0.082,0.082 0.086,0.082 0.082,0 0.082,0.086 0.086,0.082 0.082,0.082 0.082,0.086 0.086,0.082 0.082,0 0.418,0.418 0.082,0 0.082,0.082 0.086,0.082 0.082,0.086 0.082,0.082 0.086,0 0.082,0.082 0.082,0.086 0.086,0.082 0.082,0.082 0.082,0.086 0.086,0 0.414,0.414 0.086,0 0.082,0.086 0.082,0.082 0.086,0.082 0.082,0.086 0.082,0 0.086,0.082 0.082,0.082 0.082,0.086 0.086,0.082 0.082,0 0.332,0.332 0.086,0 0.082,0.086 0.082,0.082 0.086,0.082 0.082,0.086 0.082,0 0.086,0.082 0.082,0.082 0.082,0.086 0.086,0.082 0.082,0 0.332,0.332 0.086,0 0.082,0.086 0.082,0.082 0.086,0.082 0.082,0 0.082,0.086 0.086,0.082 0.082,0.082 0.082,0.086 0.086,0 0.25,0.25 0.082,0 0.082,0.082 0.086,0.082 0.082,0.086 0.082,0 0.086,0.082 0.082,0.082 0.082,0.086 0.086,0.082 0.082,0 0.25,0.25 0.082,0 0.086,0.082 0.082,0.086 0.082,0.082 0.086,0 0.082,0.082 0.082,0.086 0.086,0.082 0.082,0 0.25,0.25 0.082,0 0.086,0.082 0.082,0.086 0.082,0.082 0.086,0 0.082,0.082 0.082,0.086 0.086,0.082 0.082,0 0.25,0.25 0.082,0 0.086,0.082 0.082,0.086 0.082,0.082 0.086,0 0.082,0.082 0.082,0.086 0.086,0 0.25,0.25 0.082,0 0.082,0.082 0.086,0.082 0.082,0.086 0.082,0 0.086,0.082 0.082,0.082 0.082,0 0.25,0.25 0.086,0 0.082,0.086 0.082,0.082 0.086,0 0.082,0.082 0.082,0.086 0.086,0.082 0.082,0 0.082,0.082"
                           style="fill:none;stroke:#0000ff;stroke-width:2;stroke-linecap:butt;stroke-linejoin:round;stroke-miterlimit:10;stroke-opacity:1;stroke-dasharray:none"
                           id="path316"
                           inkscape:connector-curvature="0" /></g><g
                         transform="translate(0,414)"
                         id="g318"><path
                           d="m 289,-94.75 0.25,0.25 0,0.082 0.082,0.086 0.168,0.164 0,0.086 0.082,0.082 0.086,0.082 0.164,0.168 0,0.082 0.25,0.25 0,0.086 0.086,0.082 0.25,0.25 0,0.082 0.082,0.086 0.168,0.164 0,0.086 0.332,0.332 0,0.082 0.082,0.086 0.086,0.082 0.164,0.168 0,0.082 0.086,0.082 0.082,0.086 0.168,0.164 0,0.086 0.25,0.25 0,0.082 0.082,0.082 0.082,0.086 0.168,0.164 0,0.086 0.082,0.082 0.086,0.082 0.164,0.168 0,0.082 0.336,0.336 0,0.082 0.082,0.082 0.082,0.086 0.168,0.164 0,0.086 0.082,0.082 0.086,0.082 0.164,0.168 0,0.082 0.336,0.336 0,0.082 0.082,0.082 0.082,0.086 0.086,0.082 0.164,0.168 0,0.082 0.086,0.082 0.082,0.086 0.168,0.164 0,0.086 0.332,0.332 0,0.082 0.082,0.086 0.086,0.082 0.25,0.25 0,0.082 0.082,0.086 0.25,0.25 0,0.082 0.418,0.418 0,0.082 0.082,0.082 0.082,0.086 0.086,0.082 0.164,0.168 0,0.082 0.086,0.082 0.082,0.086 0.25,0.25 0,0.082 0.418,0.418 0,0.082 0.082,0.082 0.082,0.086 0.086,0.082 0.164,0.168 0,0.082 0.086,0.082 0.082,0.086 0.25,0.25 0,0.082 0.418,0.418 0,0.082 0.082,0.082 0.082,0.086 0.086,0.082 0.25,0.25 0,0.082 0.082,0.086 0.082,0.082 0.086,0.082 0.082,0.086 0.168,0.164 0,0.086 0.5,0.5 0,0.082 0.082,0.082 0.082,0.086 0.086,0.082 0.25,0.25 0,0.082 0.082,0.086 0.082,0.082 0.086,0.082 0.082,0.086 0.168,0.164 0,0.086 0.582,0.582 0,0.082 0.082,0.086 0.086,0.082 0.082,0.082 0.082,0.086 0.086,0.082 0.164,0.168 0,0.082 0.086,0.082 0.082,0.086 0.082,0.082 0.086,0.082 0.082,0.086 0.168,0.164 0,0.086 0.664,0.664 0,0.086 0.086,0.082 0.082,0.082 0.082,0.086 0.086,0.082 0.082,0.082 0.082,0.086 0.086,0.082 0.164,0.168 0,0.082 0.086,0.082 0.082,0.086 0.082,0.082 0.086,0.082 0.082,0.086 0.082,0.082 0.086,0.082 0.164,0.168 0,0.082 0.836,0.836 0,0.082 0.082,0.082 0.082,0.086 0.086,0.082 0.082,0.082 0.082,0.086 0.086,0.082 0.082,0.082 0.082,0.086 0.168,0.164 0,0.086 0.082,0.082 0.086,0.082 0.082,0.086 0.082,0.082 0.086,0.082 0.082,0.086 0.082,0.082 0.086,0.082 0.082,0.086 0.082,0.082 0.086,0.082 0.164,0.168 0,0.082 1.25,1.25 0,0.086 0.086,0.082 0.082,0.082 0.082,0.086 0.086,0.082 0.082,0.082 0.082,0.086 0.086,0.082 0.082,0.082 0.082,0.086 0.086,0.082 0.082,0.082 0.082,0.086 0.086,0.082 0.082,0.082 0.082,0.086 0.086,0.082 0.082,0.082 0.082,0.086 0.086,0.082 0.164,0.168 0,0.082 0.086,0.082 0.082,0.086 0.082,0.082 0.086,0.082 0.082,0.086 0.082,0.082 0.086,0.082 0.082,0.086 0.082,0.082 0.086,0.082 0.082,0.086 0.082,0.082 0.086,0.082 0.082,0.086 0.082,0.082 0.086,0.082 0.082,0.086 0.082,0.082 0.086,0.082 0.082,0.086 0.082,0.082 0.086,0.082 0.082,0.086 0.082,0.082 0.086,0.082 0.082,0.086 0.082,0.082 0.086,0.082 0.082,0.086 0.082,0.082 0.086,0.082 0.082,0.086 0.082,0.082 0.086,0.082 0.082,0.086 0.082,0.082 0.086,0.082"
                           style="fill:none;stroke:#0000ff;stroke-width:2;stroke-linecap:butt;stroke-linejoin:round;stroke-miterlimit:10;stroke-opacity:1;stroke-dasharray:none"
                           id="path320"
                           inkscape:connector-curvature="0" /></g><g
                         transform="translate(0,414)"
                         id="g322"><path
                           d="m 264.168,-130.332 0,0.082 0.164,0.168 0,0.164 0.25,0.25 0,0.086 0.168,0.164 0,0.086 0.168,0.164 0,0.086 0.164,0.164 0,0.086 0.168,0.164 0,0.168 0.25,0.25 0,0.082 0.168,0.168 0,0.082 0.164,0.168 0,0.082 0.168,0.168 0,0.082 0.168,0.168 0,0.082 0.164,0.168 0,0.168 0.086,0.082 0.164,0.168 0,0.082 0.168,0.168 0,0.082 0.168,0.168 0,0.082 0.164,0.168 0,0.082 0.168,0.168 0,0.082 0.168,0.168 0,0.082 0.164,0.168 0,0.082 0.168,0.168 0,0.164 0.082,0.086 0.086,0.082 0.164,0.168 0,0.164 0.25,0.25 0,0.086 0.168,0.164 0,0.086 0.168,0.164 0,0.086 0.164,0.164 0,0.086 0.168,0.164 0,0.086 0.168,0.164 0,0.086 0.164,0.164 0,0.086 0.168,0.164 0,0.086 0.168,0.164 0,0.086 0.164,0.164 0,0.086 0.168,0.164 0,0.086 0.168,0.164 0,0.086 0.164,0.164 0,0.086 0.168,0.164 0,0.086 0.168,0.164 0,0.086 0.164,0.164 0,0.086 0.168,0.164 0,0.086 0.168,0.164 0,0.086 0.164,0.164 0,0.086 0.168,0.164 0,0.086 0.168,0.164 0,0.086 0.164,0.164 0,0.086 0.168,0.164 0,0.086 0.25,0.25 0,0.082 0.168,0.168 0,0.082 0.164,0.168 0,0.082 0.168,0.168 0,0.082 0.168,0.168 0,0.082 0.164,0.168 0,0.082 0.168,0.168 0,0.082 0.168,0.168 0,0.082 0.25,0.25 0,0.082 0.164,0.168 0,0.082 0.168,0.168 0,0.082 0.168,0.168 0,0.082 0.164,0.168 0,0.082 0.25,0.25 0,0.086 0.168,0.164 0,0.086 0.168,0.164 0,0.086 0.164,0.164 0,0.086 0.168,0.164 0,0.086 0.25,0.25 0,0.082 0.168,0.168 0,0.082 0.164,0.168 0,0.082 0.168,0.168 0,0.082 0.25,0.25 0,0.082 0.168,0.168 0,0.082 0.164,0.168 0,0.082 0.25,0.25 0,0.086 0.168,0.164 0,0.086 0.168,0.164 0,0.086 0.25,0.25 0,0.082 0.164,0.168 0,0.082 0.168,0.168 0,0.082 0.25,0.25 0,0.082 0.168,0.168 0,0.082 0.082,0.086 0.168,0.164 0,0.086 0.164,0.164 0,0.086 0.086,0.082 0.164,0.168 0,0.082 0.168,0.168 0,0.082 0.168,0.168 0,0.082 0.25,0.25 0,0.082 0.082,0.086 0.168,0.164 0,0.086 0.164,0.164 0,0.086 0.086,0.082 0.164,0.168 0,0.082 0.168,0.168 0,0.082 0.25,0.25 0,0.082 0.168,0.168 0,0.082 0.082,0.086 0.168,0.164 0,0.086 0.164,0.164 0,0.086 0.086,0.082 0.164,0.168 0,0.082 0.086,0.082 0.164,0.168 0,0.082 0.168,0.168 0,0.082 0.082,0.086 0.168,0.164 0,0.086 0.25,0.25 0,0.082 0.168,0.168 0,0.082 0.25,0.25 0,0.082 0.082,0.086 0.168,0.164 0,0.086 0.25,0.25 0,0.082 0.164,0.168 0,0.082 0.086,0.082 0.164,0.168 0,0.082 0.25,0.25 0,0.086 0.086,0.082 0.164,0.168 0,0.082 0.086,0.082 0.164,0.168 0,0.082 0.25,0.25 0,0.086 0.168,0.164 0,0.086 0.25,0.25 0,0.082 0.25,0.25 0,0.082 0.082,0.086 0.168,0.164 0,0.086 0.25,0.25 0,0.082 0.25,0.25 0,0.082 0.082,0.086 0.168,0.164 0,0.086 0.25,0.25 0,0.082 0.25,0.25 0,0.082 0.082,0.086 0.086,0.082 0.164,0.168 0,0.082 0.086,0.082 0.164,0.168 0,0.082 0.25,0.25 0,0.086 0.086,0.082 0.164,0.168 0,0.082 0.086,0.082 0.164,0.168 0,0.082 0.336,0.336 0,0.082 0.25,0.25 0,0.082 0.082,0.086 0.168,0.164 0,0.086 0.082,0.082"
                           style="fill:none;stroke:#0000ff;stroke-width:2;stroke-linecap:butt;stroke-linejoin:round;stroke-miterlimit:10;stroke-opacity:1;stroke-dasharray:none"
                           id="path324"
                           inkscape:connector-curvature="0" /></g><g
                         transform="translate(0,414)"
                         id="g326"><path
                           d="m 239.25,-171.582 0,0.164 0.168,0.168 0,0.082 0.164,0.168 0,0.168 0.168,0.164 0,0.086 0.168,0.164 0,0.168 0.25,0.25 0,0.168 0.164,0.164 0,0.086 0.168,0.164 0,0.168 0.168,0.168 0,0.082 0.164,0.168 0,0.164 0.25,0.25 0,0.168 0.168,0.168 0,0.082 0.168,0.168 0,0.164 0.164,0.168 0,0.082 0.168,0.168 0,0.168 0.25,0.25 0,0.164 0.168,0.168 0,0.082 0.164,0.168 0,0.168 0.086,0.082 0.164,0.168 0,0.164 0.168,0.168 0,0.082 0.168,0.168 0,0.168 0.164,0.164 0,0.086 0.168,0.164 0,0.168 0.25,0.25 0,0.168 0.168,0.164 0,0.086 0.164,0.164 0,0.168 0.086,0.082 0.164,0.168 0,0.168 0.168,0.164 0,0.086 0.168,0.164 0,0.168 0.25,0.25 0,0.168 0.164,0.164 0,0.086 0.168,0.164 0,0.168 0.25,0.25 0,0.168 0.25,0.25 0,0.164 0.168,0.168 0,0.082 0.164,0.168 0,0.168 0.086,0.082 0.164,0.168 0,0.164 0.25,0.25 0,0.168 0.168,0.168 0,0.082 0.168,0.168 0,0.164 0.082,0.086 0.168,0.164 0,0.168 0.25,0.25 0,0.168 0.25,0.25 0,0.164 0.082,0.086 0.168,0.164 0,0.168 0.164,0.168 0,0.082 0.168,0.168 0,0.164 0.082,0.086 0.168,0.164 0,0.168 0.25,0.25 0,0.168 0.25,0.25 0,0.164 0.082,0.086 0.168,0.164 0,0.168 0.25,0.25 0,0.168 0.25,0.25 0,0.164 0.168,0.168 0,0.082 0.164,0.168 0,0.082 0.168,0.168 0,0.168 0.168,0.164 0,0.086 0.164,0.164 0,0.168 0.086,0.082 0.164,0.168 0,0.168 0.086,0.082 0.164,0.168 0,0.164 0.25,0.25 0,0.168 0.086,0.082 0.164,0.168 0,0.168 0.086,0.082 0.164,0.168 0,0.082 0.168,0.168 0,0.164 0.082,0.086 0.168,0.164 0,0.168 0.25,0.25 0,0.168 0.25,0.25 0,0.164 0.082,0.086 0.168,0.164 0,0.168 0.25,0.25 0,0.168 0.25,0.25 0,0.164 0.082,0.086 0.168,0.164 0,0.086 0.168,0.164 0,0.168 0.25,0.25 0,0.168 0.25,0.25 0,0.164 0.082,0.086 0.168,0.164 0,0.168 0.25,0.25 0,0.082 0.164,0.168 0,0.168 0.086,0.082 0.164,0.168 0,0.164 0.25,0.25 0,0.168 0.086,0.082 0.164,0.168 0,0.082 0.168,0.168 0,0.168 0.25,0.25 0,0.164 0.082,0.086 0.168,0.164 0,0.086 0.168,0.164 0,0.168 0.25,0.25 0,0.168 0.25,0.25 0,0.082 0.164,0.168 0,0.164 0.25,0.25 0,0.086 0.168,0.164 0,0.168 0.25,0.25 0,0.168 0.25,0.25 0,0.082 0.168,0.168 0,0.164 0.082,0.086 0.168,0.164 0,0.086 0.164,0.164 0,0.168 0.086,0.082 0.164,0.168 0,0.082 0.168,0.168 0,0.168 0.25,0.25 0,0.082 0.168,0.168 0,0.164 0.082,0.086 0.168,0.164 0,0.086 0.164,0.164 0,0.168 0.086,0.082 0.164,0.168 0,0.082 0.168,0.168 0,0.168 0.25,0.25 0,0.082 0.168,0.168 0,0.082 0.164,0.168 0,0.164 0.25,0.25 0,0.086 0.168,0.164 0,0.168 0.25,0.25 0,0.082 0.168,0.168 0,0.082 0.164,0.168 0,0.168 0.086,0.082 0.164,0.168 0,0.082 0.168,0.168 0,0.082 0.168,0.168 0,0.164 0.082,0.086 0.168,0.164 0,0.086 0.164,0.164 0,0.086 0.168,0.164 0,0.168 0.25,0.25 0,0.082 0.168,0.168 0,0.082 0.164,0.168 0,0.168 0.086,0.082 0.164,0.168 0,0.082 0.168,0.168 0,0.082 0.168,0.168"
                           style="fill:none;stroke:#0000ff;stroke-width:2;stroke-linecap:butt;stroke-linejoin:round;stroke-miterlimit:10;stroke-opacity:1;stroke-dasharray:none"
                           id="path328"
                           inkscape:connector-curvature="0" /></g><g
                         transform="translate(0,414)"
                         id="g330"><path
                           d="m 214.25,-215.918 0.082,0.086 0.168,0.164 0,0.168 0.168,0.168 0,0.164 0.082,0.086 0.168,0.164 0,0.168 0.164,0.168 0,0.164 0.25,0.25 0,0.168 0.168,0.168 0,0.164 0.082,0.086 0.168,0.164 0,0.168 0.168,0.168 0,0.164 0.082,0.086 0.168,0.164 0,0.168 0.164,0.168 0,0.164 0.25,0.25 0,0.168 0.168,0.168 0,0.164 0.082,0.086 0.168,0.164 0,0.168 0.168,0.168 0,0.164 0.082,0.086 0.168,0.164 0,0.168 0.164,0.168 0,0.164 0.25,0.25 0,0.168 0.168,0.168 0,0.164 0.082,0.086 0.168,0.164 0,0.168 0.168,0.168 0,0.164 0.082,0.086 0.168,0.164 0,0.168 0.164,0.168 0,0.164 0.25,0.25 0,0.168 0.168,0.168 0,0.164 0.082,0.086 0.168,0.164 0,0.168 0.168,0.168 0,0.164 0.082,0.086 0.168,0.164 0,0.168 0.164,0.168 0,0.164 0.25,0.25 0,0.168 0.168,0.168 0,0.164 0.082,0.086 0.168,0.164 0,0.168 0.168,0.168 0,0.164 0.082,0.086 0.168,0.164 0,0.168 0.164,0.168 0,0.164 0.25,0.25 0,0.168 0.168,0.168 0,0.164 0.082,0.086 0.168,0.164 0,0.168 0.168,0.168 0,0.164 0.082,0.086 0.168,0.164 0,0.168 0.164,0.168 0,0.164 0.25,0.25 0,0.168 0.168,0.168 0,0.164 0.082,0.086 0.168,0.164 0,0.168 0.168,0.168 0,0.164 0.082,0.086 0.168,0.164 0,0.168 0.164,0.168 0,0.082 0.168,0.168 0,0.164 0.168,0.168 0,0.168 0.25,0.25 0,0.164 0.164,0.168 0,0.168 0.086,0.082 0.164,0.168 0,0.164 0.168,0.168 0,0.168 0.25,0.25 0,0.164 0.168,0.168 0,0.082 0.164,0.168 0,0.168 0.168,0.164 0,0.168 0.25,0.25 0,0.168 0.168,0.164 0,0.168 0.25,0.25 0,0.168 0.164,0.164 0,0.168 0.086,0.082 0.164,0.168 0,0.168 0.168,0.164 0,0.086 0.168,0.164 0,0.168 0.164,0.168 0,0.164 0.25,0.25 0,0.168 0.168,0.168 0,0.164 0.082,0.086 0.168,0.164 0,0.168 0.168,0.168 0,0.082 0.164,0.168 0,0.164 0.168,0.168 0,0.168 0.25,0.25 0,0.164 0.168,0.168 0,0.168 0.25,0.25 0,0.164 0.164,0.168 0,0.082 0.168,0.168 0,0.168 0.168,0.164 0,0.168 0.25,0.25 0,0.168 0.164,0.164 0,0.086 0.168,0.164 0,0.168 0.168,0.168 0,0.082 0.164,0.168 0,0.164 0.168,0.168 0,0.168 0.25,0.25 0,0.164 0.168,0.168 0,0.082 0.164,0.168 0,0.168 0.168,0.164 0,0.168 0.25,0.25 0,0.168 0.168,0.164 0,0.086 0.164,0.164 0,0.168 0.168,0.168 0,0.164 0.082,0.086 0.168,0.164 0,0.168 0.168,0.168 0,0.082 0.164,0.168 0,0.164 0.168,0.168 0,0.082 0.168,0.168 0,0.168 0.164,0.164 0,0.168 0.086,0.082 0.164,0.168 0,0.168 0.168,0.164 0,0.086 0.168,0.164 0,0.168 0.164,0.168 0,0.082 0.168,0.168 0,0.164 0.168,0.168 0,0.082 0.164,0.168 0,0.168 0.168,0.164 0,0.086 0.168,0.164 0,0.168 0.164,0.168 0,0.082 0.168,0.168 0,0.164 0.168,0.168 0,0.082 0.164,0.168 0,0.168 0.168,0.164 0,0.168 0.25,0.25 0,0.168 0.25,0.25 0,0.164 0.168,0.168 0,0.168 0.25,0.25 0,0.164 0.082,0.086 0.168,0.164 0,0.168 0.164,0.168 0,0.164 0.25,0.25 0,0.168 0.168,0.168 0,0.082 0.168,0.168 0,0.164 0.082,0.086 0.168,0.164 0,0.168 0.164,0.168 0,0.082 0.168,0.168 0,0.164 0.168,0.168 0,0.082 0.164,0.168 0,0.168 0.168,0.164 0,0.086 0.168,0.164 0,0.168 0.164,0.168 0,0.082 0.168,0.168"
                           style="fill:none;stroke:#0000ff;stroke-width:2;stroke-linecap:butt;stroke-linejoin:round;stroke-miterlimit:10;stroke-opacity:1;stroke-dasharray:none"
                           id="path332"
                           inkscape:connector-curvature="0" /></g><g
                         transform="translate(0,414)"
                         id="g334"><path
                           d="m 189.418,-260.082 0,0.164 0.164,0.168 0,0.082 0.168,0.168 0,0.168 0.25,0.25 0,0.164 0.168,0.168 0,0.082 0.164,0.168 0,0.168 0.086,0.082 0.164,0.168 0,0.164 0.168,0.168 0,0.082 0.168,0.168 0,0.168 0.164,0.164 0,0.086 0.168,0.164 0,0.168 0.25,0.25 0,0.168 0.168,0.164 0,0.086 0.164,0.164 0,0.168 0.168,0.168 0,0.082 0.168,0.168 0,0.164 0.082,0.086 0.168,0.164 0,0.168 0.164,0.168 0,0.082 0.168,0.168 0,0.164 0.168,0.168 0,0.082 0.164,0.168 0,0.168 0.168,0.164 0,0.086 0.168,0.164 0,0.168 0.25,0.25 0,0.168 0.164,0.164 0,0.086 0.168,0.164 0,0.168 0.168,0.168 0,0.082 0.164,0.168 0,0.164 0.168,0.168 0,0.082 0.168,0.168 0,0.168 0.164,0.164 0,0.086 0.168,0.164 0,0.168 0.168,0.168 0,0.082 0.164,0.168 0,0.164 0.168,0.168 0,0.082 0.168,0.168 0,0.168 0.164,0.164 0,0.086 0.168,0.164 0,0.168 0.168,0.168 0,0.082 0.164,0.168 0,0.164 0.168,0.168 0,0.082 0.168,0.168 0,0.168 0.164,0.164 0,0.086 0.168,0.164 0,0.168 0.168,0.168 0,0.082 0.164,0.168 0,0.164 0.168,0.168 0,0.082 0.168,0.168 0,0.168 0.164,0.164 0,0.168 0.086,0.082 0.164,0.168 0,0.168 0.168,0.164 0,0.086 0.168,0.164 0,0.168 0.164,0.168 0,0.082 0.168,0.168 0,0.164 0.168,0.168 0,0.082 0.164,0.168 0,0.168 0.168,0.164 0,0.168 0.25,0.25 0,0.168 0.168,0.164 0,0.086 0.164,0.164 0,0.168 0.168,0.168 0,0.082 0.168,0.168 0,0.164 0.164,0.168 0,0.168 0.086,0.082 0.164,0.168 0,0.164 0.168,0.168 0,0.082 0.168,0.168 0,0.168 0.164,0.164 0,0.168 0.086,0.082 0.164,0.168 0,0.168 0.168,0.164 0,0.086 0.168,0.164 0,0.168 0.164,0.168 0,0.082 0.168,0.168 0,0.164 0.168,0.168 0,0.168 0.25,0.25 0,0.164 0.164,0.168 0,0.082 0.168,0.168 0,0.168 0.168,0.164 0,0.168 0.25,0.25 0,0.168 0.164,0.164 0,0.168 0.086,0.082 0.164,0.168 0,0.168 0.168,0.164 0,0.086 0.168,0.164 0,0.168 0.164,0.168 0,0.164 0.25,0.25 0,0.168 0.168,0.168 0,0.164 0.082,0.086 0.168,0.164 0,0.168 0.168,0.168 0,0.082 0.164,0.168 0,0.164 0.168,0.168 0,0.168 0.25,0.25 0,0.164 0.168,0.168 0,0.168 0.25,0.25 0,0.164 0.164,0.168 0,0.082 0.168,0.168 0,0.168 0.168,0.164 0,0.168 0.25,0.25 0,0.168 0.164,0.164 0,0.168 0.086,0.082 0.164,0.168 0,0.168 0.168,0.164 0,0.168 0.25,0.25 0,0.168 0.168,0.164 0,0.168 0.25,0.25 0,0.168 0.164,0.164 0,0.086 0.168,0.164 0,0.168 0.168,0.168 0,0.164 0.082,0.086 0.168,0.164 0,0.168 0.164,0.168 0,0.164 0.25,0.25 0,0.168 0.168,0.168 0,0.164 0.082,0.086 0.168,0.164 0,0.168 0.168,0.168 0,0.164 0.082,0.086 0.168,0.164 0,0.168 0.164,0.168 0,0.164 0.25,0.25 0,0.168 0.168,0.168 0,0.164 0.082,0.086 0.168,0.164 0,0.168 0.168,0.168 0,0.164 0.082,0.086 0.168,0.164 0,0.168 0.164,0.168 0,0.164 0.25,0.25 0,0.168 0.168,0.168 0,0.164 0.082,0.086 0.168,0.164 0,0.168 0.168,0.168 0,0.164 0.082,0.086 0.168,0.164 0,0.168 0.164,0.168 0,0.164 0.25,0.25 0,0.168 0.168,0.168 0,0.164 0.082,0.086 0.168,0.164 0,0.168 0.168,0.168 0,0.164 0.082,0.086 0.168,0.164 0,0.168 0.164,0.168 0,0.164 0.25,0.25 0,0.168 0.168,0.168 0,0.164"
                           style="fill:none;stroke:#0000ff;stroke-width:2;stroke-linecap:butt;stroke-linejoin:round;stroke-miterlimit:10;stroke-opacity:1;stroke-dasharray:none"
                           id="path336"
                           inkscape:connector-curvature="0" /></g><g
                         transform="translate(0,414)"
                         id="g338"><path
                           d="m 164.418,-300 0.164,0.168 0,0.082 0.168,0.168 0,0.082 0.168,0.168 0,0.082 0.164,0.168 0,0.082 0.168,0.168 0,0.082 0.168,0.168 0,0.082 0.164,0.168 0,0.082 0.086,0.082 0.164,0.168 0,0.082 0.168,0.168 0,0.082 0.168,0.168 0,0.082 0.164,0.168 0,0.082 0.168,0.168 0,0.082 0.168,0.168 0,0.082 0.164,0.168 0,0.082 0.168,0.168 0,0.082 0.168,0.168 0,0.082 0.164,0.168 0,0.082 0.168,0.168 0,0.082 0.168,0.168 0,0.082 0.164,0.168 0,0.082 0.168,0.168 0,0.082 0.168,0.168 0,0.082 0.164,0.168 0,0.082 0.168,0.168 0,0.082 0.168,0.168 0,0.082 0.164,0.168 0,0.082 0.168,0.168 0,0.082 0.168,0.168 0,0.168 0.25,0.25 0,0.082 0.164,0.168 0,0.082 0.168,0.168 0,0.082 0.168,0.168 0,0.082 0.164,0.168 0,0.082 0.168,0.168 0,0.082 0.168,0.168 0,0.082 0.164,0.168 0,0.164 0.25,0.25 0,0.086 0.168,0.164 0,0.086 0.168,0.164 0,0.086 0.164,0.164 0,0.086 0.168,0.164 0,0.168 0.25,0.25 0,0.082 0.168,0.168 0,0.082 0.164,0.168 0,0.082 0.168,0.168 0,0.168 0.25,0.25 0,0.082 0.168,0.168 0,0.082 0.164,0.168 0,0.082 0.168,0.168 0,0.164 0.082,0.086 0.168,0.164 0,0.086 0.168,0.164 0,0.086 0.164,0.164 0,0.168 0.086,0.082 0.164,0.168 0,0.082 0.168,0.168 0,0.082 0.168,0.168 0,0.168 0.25,0.25 0,0.082 0.164,0.168 0,0.082 0.168,0.168 0,0.164 0.082,0.086 0.168,0.164 0,0.086 0.168,0.164 0,0.168 0.25,0.25 0,0.082 0.164,0.168 0,0.168 0.086,0.082 0.164,0.168 0,0.082 0.168,0.168 0,0.164 0.082,0.086 0.168,0.164 0,0.086 0.168,0.164 0,0.168 0.25,0.25 0,0.082 0.164,0.168 0,0.168 0.086,0.082 0.164,0.168 0,0.082 0.168,0.168 0,0.164 0.082,0.086 0.168,0.164 0,0.168 0.25,0.25 0,0.082 0.168,0.168 0,0.168 0.25,0.25 0,0.082 0.164,0.168 0,0.164 0.25,0.25 0,0.168 0.086,0.082 0.164,0.168 0,0.082 0.168,0.168 0,0.168 0.25,0.25 0,0.164 0.082,0.086 0.168,0.164 0,0.086 0.168,0.164 0,0.168 0.25,0.25 0,0.168 0.25,0.25 0,0.164 0.082,0.086 0.168,0.164 0,0.086 0.164,0.164 0,0.168 0.086,0.082 0.164,0.168 0,0.168 0.086,0.082 0.164,0.168 0,0.164 0.25,0.25 0,0.168 0.086,0.082 0.164,0.168 0,0.168 0.086,0.082 0.164,0.168 0,0.082 0.168,0.168 0,0.164 0.082,0.086 0.168,0.164 0,0.168 0.25,0.25 0,0.168 0.25,0.25 0,0.164 0.082,0.086 0.168,0.164 0,0.168 0.25,0.25 0,0.168 0.25,0.25 0,0.164 0.082,0.086 0.168,0.164 0,0.168 0.25,0.25 0,0.168 0.25,0.25 0,0.164 0.082,0.086 0.168,0.164 0,0.168 0.25,0.25 0,0.168 0.168,0.164 0,0.086 0.164,0.164 0,0.168 0.086,0.082 0.164,0.168 0,0.168 0.086,0.082 0.164,0.168 0,0.164 0.25,0.25 0,0.168 0.086,0.082 0.164,0.168 0,0.168 0.086,0.082 0.164,0.168 0,0.164 0.168,0.168 0,0.082 0.168,0.168 0,0.168 0.25,0.25 0,0.164 0.082,0.086 0.168,0.164 0,0.168 0.164,0.168 0,0.082 0.168,0.168 0,0.164 0.082,0.086 0.168,0.164 0,0.168 0.25,0.25 0,0.168 0.168,0.164 0,0.086 0.164,0.164 0,0.168 0.086,0.082 0.164,0.168 0,0.168 0.086,0.082 0.164,0.168 0,0.164 0.168,0.168 0,0.082 0.168,0.168 0,0.168 0.25,0.25"
                           style="fill:none;stroke:#0000ff;stroke-width:2;stroke-linecap:butt;stroke-linejoin:round;stroke-miterlimit:10;stroke-opacity:1;stroke-dasharray:none"
                           id="path340"
                           inkscape:connector-curvature="0" /></g><g
                         transform="translate(0,414)"
                         id="g342"><path
                           d="m 139.5,-331.75 0.668,0.668 0,0.082 0.082,0.082 0.082,0.086 0.086,0.082 0.082,0.082 0.082,0.086 0.086,0.082 0.082,0.082 0.082,0.086 0.086,0.082 0.164,0.168 0,0.082 0.086,0.082 0.082,0.086 0.082,0.082 0.086,0.082 0.082,0.086 0.082,0.082 0.086,0.082 0.082,0.086 0.168,0.164 0,0.086 0.75,0.75 0,0.082 0.082,0.082 0.082,0.086 0.086,0.082 0.082,0.082 0.082,0.086 0.086,0.082 0.164,0.168 0,0.082 0.086,0.082 0.082,0.086 0.082,0.082 0.086,0.082 0.082,0.086 0.168,0.164 0,0.086 0.5,0.5 0,0.082 0.082,0.082 0.082,0.086 0.086,0.082 0.082,0.082 0.082,0.086 0.168,0.164 0,0.086 0.082,0.082 0.086,0.082 0.082,0.086 0.25,0.25 0,0.082 0.418,0.418 0,0.082 0.082,0.082 0.082,0.086 0.086,0.082 0.25,0.25 0,0.082 0.082,0.086 0.082,0.082 0.086,0.082 0.164,0.168 0,0.082 0.418,0.418 0,0.082 0.082,0.086 0.086,0.082 0.25,0.25 0,0.082 0.082,0.086 0.082,0.082 0.086,0.082 0.164,0.168 0,0.082 0.336,0.336 0,0.082 0.082,0.082 0.082,0.086 0.086,0.082 0.164,0.168 0,0.082 0.086,0.082 0.082,0.086 0.168,0.164 0,0.086 0.332,0.332 0,0.082 0.082,0.086 0.086,0.082 0.25,0.25 0,0.082 0.082,0.086 0.25,0.25 0,0.082 0.25,0.25 0,0.082 0.082,0.086 0.086,0.082 0.164,0.168 0,0.082 0.086,0.082 0.082,0.086 0.168,0.164 0,0.086 0.332,0.332 0,0.082 0.082,0.086 0.086,0.082 0.164,0.168 0,0.082 0.086,0.082 0.164,0.168 0,0.082 0.336,0.336 0,0.082 0.25,0.25 0,0.082 0.082,0.086 0.168,0.164 0,0.086 0.332,0.332 0,0.082 0.082,0.086 0.168,0.164 0,0.086 0.25,0.25 0,0.082 0.332,0.332 0,0.086 0.086,0.082 0.164,0.168 0,0.082 0.086,0.082 0.164,0.168 0,0.082 0.25,0.25 0,0.086 0.086,0.082 0.164,0.168 0,0.082 0.086,0.082 0.164,0.168 0,0.082 0.25,0.25 0,0.086 0.086,0.082 0.164,0.168 0,0.082 0.086,0.082 0.164,0.168 0,0.082 0.25,0.25 0,0.086 0.086,0.082 0.164,0.168 0,0.082 0.086,0.082 0.164,0.168 0,0.082 0.25,0.25 0,0.086 0.168,0.164 0,0.086 0.25,0.25 0,0.082 0.25,0.25 0,0.082 0.082,0.086 0.168,0.164 0,0.086 0.168,0.164 0,0.086 0.25,0.25 0,0.082 0.25,0.25 0,0.082 0.164,0.168 0,0.082 0.25,0.25 0,0.086 0.168,0.164 0,0.086 0.25,0.25 0,0.082 0.25,0.25 0,0.082 0.168,0.168 0,0.082 0.164,0.168 0,0.082 0.25,0.25 0,0.086 0.168,0.164 0,0.086 0.25,0.25 0,0.082 0.168,0.168 0,0.082 0.25,0.25 0,0.082 0.164,0.168 0,0.082 0.25,0.25 0,0.086 0.168,0.164 0,0.086 0.168,0.164 0,0.086 0.164,0.164 0,0.086 0.086,0.082 0.164,0.168 0,0.082 0.168,0.168 0,0.082 0.168,0.168 0,0.082 0.25,0.25 0,0.082 0.164,0.168 0,0.082 0.168,0.168 0,0.082 0.168,0.168 0,0.082 0.082,0.086 0.168,0.164 0,0.086 0.164,0.164 0,0.086 0.168,0.164 0,0.086 0.168,0.164 0,0.086 0.164,0.164 0,0.086 0.086,0.082"
                           style="fill:none;stroke:#0000ff;stroke-width:2;stroke-linecap:butt;stroke-linejoin:round;stroke-miterlimit:10;stroke-opacity:1;stroke-dasharray:none"
                           id="path344"
                           inkscape:connector-curvature="0" /></g><g
                         transform="translate(0,414)"
                         id="g346"><path
                           d="m 114.582,-352.582 0.086,0.082 0.082,0 0.168,0.168 0.082,0 0.082,0.082 0.086,0.082 0.082,0 0.082,0.086 0.086,0 0.164,0.164 0.086,0 0.082,0.086 0.082,0 0.086,0.082 0.082,0.082 0.082,0 0.168,0.168 0.082,0 0.086,0.082 0.082,0 0.082,0.086 0.086,0.082 0.082,0 0.168,0.168 0.082,0 0.082,0.082 0.086,0.082 0.082,0 0.082,0.086 0.086,0.082 0.082,0 0.082,0.082 0.086,0 0.082,0.086 0.082,0.082 0.086,0 0.082,0.082 0.082,0.086 0.086,0 0.164,0.164 0.086,0 0.082,0.086 0.082,0.082 0.086,0 0.082,0.082 0.082,0.086 0.086,0.082 0.082,0 0.168,0.168 0.082,0 0.082,0.082 0.086,0.082 0.082,0 0.082,0.086 0.086,0.082 0.082,0 0.168,0.168 0.082,0 0.082,0.082 0.086,0.082 0.082,0.086 0.082,0 0.086,0.082 0.082,0.082 0.082,0 0.25,0.25 0.086,0 0.082,0.086 0.082,0.082 0.086,0 0.082,0.082 0.082,0.086 0.086,0.082 0.082,0 0.25,0.25 0.082,0 0.086,0.082 0.082,0.086 0.082,0.082 0.086,0 0.082,0.082 0.082,0.086 0.086,0 0.25,0.25 0.082,0 0.082,0.082 0.086,0.082 0.082,0.086 0.082,0.082 0.086,0 0.082,0.082 0.082,0.086 0.086,0.082 0.082,0 0.25,0.25 0.082,0 0.086,0.082 0.082,0.086 0.082,0.082 0.086,0.082 0.082,0 0.082,0.086 0.086,0.082 0.082,0.082 0.082,0 0.336,0.336 0.082,0 0.082,0.082 0.086,0.082 0.082,0.086 0.082,0.082 0.086,0 0.082,0.082 0.082,0.086 0.086,0.082 0.082,0.082 0.082,0.086 0.086,0 0.332,0.332 0.082,0 0.086,0.082 0.082,0.086 0.082,0.082 0.086,0.082 0.082,0.086 0.082,0 0.086,0.082 0.082,0.082 0.082,0.086 0.086,0.082 0.082,0.082 0.082,0 0.418,0.418 0.082,0 0.086,0.082 0.082,0.086 0.082,0.082 0.086,0.082 0.082,0.086 0.082,0.082 0.086,0 0.082,0.082 0.082,0.086 0.086,0.082 0.082,0.082 0.082,0.086 0.086,0.082 0.082,0.082 0.082,0 0.586,0.586 0.082,0 0.082,0.082 0.086,0.082 0.082,0.086 0.082,0.082 0.086,0.082 0.082,0.086 0.082,0.082 0.086,0.082 0.082,0.086 0.082,0 0.086,0.082 0.082,0.082 0.082,0.086 0.086,0.082 0.082,0.082 0.082,0.086 0.086,0.082 0.082,0.082 0.082,0.086 0.086,0.082 0.082,0 1.168,1.168 0.082,0 0.082,0.082 0.086,0.082 0.082,0.086 0.082,0.082 0.086,0.082 0.082,0.086 0.082,0.082 0.086,0.082 0.082,0.086 0.082,0.082 0.086,0.082 0.082,0.086 0.082,0.082 0.086,0.082 0.082,0.086 0.082,0.082 0.086,0.082 0.082,0.086 0.082,0.082 0.086,0.082 0.082,0.086 0.082,0.082 0.086,0.082 0.082,0.086 0.082,0.082 0.086,0.082 0.082,0.086 0.082,0.082 0.086,0.082 0.082,0.086 0.082,0.082 0.086,0.082 0.082,0 0.168,0.168 0,0.082 0.082,0.086 0.082,0 0.086,0.082 0.082,0.082 0.082,0.086 0.168,0.164 0,0.086 0.082,0.082 0.086,0.082 0.082,0.086 0.082,0.082 0.086,0.082 0.082,0.086 0.082,0.082 0.086,0.082 0.082,0.086 0.082,0.082 0.086,0.082 0.082,0.086 0.082,0.082 0.086,0.082 0.082,0.086 0.082,0.082 0.086,0.082 0.082,0.086 0.082,0.082 0.086,0.082 0.082,0.086 0.082,0.082 0.086,0.082 0.082,0.086 0.082,0.082 0.086,0.082 0.082,0.086 0.082,0.082 0.086,0.082 0.082,0.086 0.168,0.164 0,0.086 0.582,0.582"
                           style="fill:none;stroke:#0000ff;stroke-width:2;stroke-linecap:butt;stroke-linejoin:round;stroke-miterlimit:10;stroke-opacity:1;stroke-dasharray:none"
                           id="path348"
                           inkscape:connector-curvature="0" /></g><g
                         transform="translate(0,414)"
                         id="g350"><path
                           d="m 89.668,-361.918 0.082,0 0.082,0.086 0.336,0 0.082,0.082 0.418,0 0.082,0.082 0.332,0 0.086,0.086 0.332,0 0.082,0.082 0.336,0 0.082,0.082 0.332,0 0.086,0.086 0.25,0 0.082,0.082 0.332,0 0.086,0.082 0.25,0 0.082,0.086 0.332,0 0.086,0.082 0.25,0 0.082,0.082 0.25,0 0.082,0.086 0.25,0 0.086,0.082 0.25,0 0.082,0.082 0.25,0 0.082,0.086 0.25,0 0.086,0.082 0.164,0 0.086,0.082 0.25,0 0.082,0.086 0.25,0 0.082,0.082 0.168,0 0.082,0.082 0.25,0 0.086,0.086 0.164,0 0.086,0.082 0.25,0 0.082,0.082 0.168,0 0.082,0.086 0.168,0 0.082,0.082 0.168,0 0.082,0.082 0.25,0 0.082,0.086 0.168,0 0.082,0.082 0.168,0 0.082,0.082 0.168,0 0.082,0.086 0.168,0 0.082,0.082 0.168,0 0.082,0.082 0.168,0 0.082,0.086 0.168,0 0.082,0.082 0.168,0 0.082,0.082 0.086,0 0.082,0.086 0.168,0 0.082,0.082 0.168,0 0.082,0.082 0.168,0 0.082,0.086 0.168,0 0.082,0.082 0.082,0 0.086,0.082 0.164,0 0.086,0.086 0.082,0 0.082,0.082 0.168,0 0.082,0.082 0.168,0 0.082,0.086 0.086,0 0.082,0.082 0.168,0 0.082,0.082 0.082,0 0.086,0.086 0.164,0 0.086,0.082 0.082,0 0.082,0.082 0.168,0 0.082,0.086 0.086,0 0.082,0.082 0.168,0 0.082,0.082 0.082,0 0.086,0.086 0.082,0 0.082,0.082 0.168,0 0.082,0.082 0.086,0 0.082,0.086 0.082,0 0.086,0.082 0.164,0 0.086,0.082 0.082,0 0.082,0.086 0.086,0 0.082,0.082 0.082,0 0.086,0.082 0.082,0 0.082,0.086 0.168,0 0.082,0.082 0.086,0 0.082,0.082 0.082,0 0.086,0.086 0.082,0 0.082,0.082 0.086,0 0.082,0.082 0.082,0 0.086,0.086 0.164,0 0.086,0.082 0.082,0 0.082,0.082 0.086,0 0.082,0.086 0.082,0 0.086,0.082 0.082,0 0.082,0.082 0.086,0 0.082,0.086 0.082,0 0.086,0.082 0.082,0 0.082,0.082 0.086,0 0.082,0.086 0.082,0 0.086,0.082 0.082,0 0.082,0.082 0.086,0 0.082,0.086 0.082,0 0.086,0.082 0.082,0 0.082,0.082 0.086,0 0.082,0.086 0.082,0 0.086,0.082 0.082,0 0.168,0.168 0.082,0 0.082,0.082 0.086,0 0.082,0.082 0.082,0 0.086,0.086 0.082,0 0.082,0.082 0.086,0 0.082,0.082 0.082,0 0.168,0.168 0.082,0 0.086,0.082 0.082,0 0.082,0.086 0.086,0 0.082,0.082 0.082,0 0.086,0.082 0.082,0.086 0.082,0 0.086,0.082 0.082,0 0.082,0.082 0.086,0 0.082,0.086 0.082,0.082 0.086,0 0.082,0.082 0.082,0 0.086,0.086 0.082,0 0.082,0.082 0.086,0.082 0.082,0 0.082,0.086 0.086,0 0.164,0.164 0.086,0 0.082,0.086 0.082,0"
                           style="fill:none;stroke:#0000ff;stroke-width:2;stroke-linecap:butt;stroke-linejoin:round;stroke-miterlimit:10;stroke-opacity:1;stroke-dasharray:none"
                           id="path352"
                           inkscape:connector-curvature="0" /></g><g
                         transform="translate(0,414)"
                         id="g354"><path
                           d="m 67,-363.25 -0.082,0 8.5,0 0.082,0.082 2.25,0 0.082,0.086 1.5,0 0.086,0.082 1.25,0 0.082,0.082 1,0 0.082,0.086 0.918,0 0.082,0.082 0.75,0 0.086,0.082 0.75,0 0.082,0.086 0.668,0 0.082,0.082 0.582,0 0.086,0.082 0.582,0 0.082,0.086 0.5,0 0.086,0.082 0.5,0 0.082,0.082 0.5,0 0.082,0.086 0.418,0 0.082,0.082 0.418,0 0.082,0.082 0.336,0"
                           style="fill:none;stroke:#0000ff;stroke-width:2;stroke-linecap:butt;stroke-linejoin:round;stroke-miterlimit:10;stroke-opacity:1;stroke-dasharray:none"
                           id="path356"
                           inkscape:connector-curvature="0" /></g></g></g></g></g></g></g><g
             id="g358"><g
               clip-path="url(#clipPath36)"
               id="g360"><g
                 id="g362"><g
                   id="g364" /><g
                   id="g366"><g
                     clip-path="url(#clipPath40)"
                     id="g368"><g
                       id="g370"><text
                         transform="matrix(1,0,0,-1,245,10)"
                         id="text372"
                         sodipodi:linespacing="125%"
                         style="font-size:22.39999962px;font-style:normal;font-variant:normal;font-weight:bold;font-stretch:normal;text-align:start;line-height:125%;writing-mode:lr-tb;text-anchor:start;font-family:Times New Roman;-inkscape-font-specification:'Times New Roman, Bold'"><tspan
                           style="font-size:22.39999962px;font-style:normal;font-variant:normal;font-weight:bold;font-stretch:normal;text-align:start;line-height:125%;writing-mode:lr-tb;text-anchor:start;fill:#000000;fill-opacity:1;fill-rule:nonzero;stroke:none;font-family:Times New Roman;-inkscape-font-specification:'Times New Roman, Bold'"
                           x="0 12.2 16.639999 33.279999 49.959999 56.619999 73.260002 83.260002"
                           y="0"
                           sodipodi:role="line"
                           id="tspan374">Time(ms)</tspan></text>
<text
                         transform="matrix(0,1,1,0,21.5832,152.5)"
                         id="text376"
                         sodipodi:linespacing="125%"
                         style="line-height:125%"><tspan
                           style="font-size:22.39999962px;font-style:normal;font-variant:normal;font-weight:bold;font-stretch:normal;text-align:start;line-height:125%;writing-mode:lr-tb;text-anchor:start;fill:#000000;fill-opacity:1;fill-rule:nonzero;stroke:none;font-family:Times New Roman;-inkscape-font-specification:'Times New Roman, Bold'"
                           x="0 12.2 16.639999 33.279999 49.959999 63.299999 74.419998 84.419998 95.540001 106.66 112.22 123.34 134.46001"
                           y="0"
                           sodipodi:role="line"
                           id="tspan378">TimeAdvantage</tspan></text>
</g></g></g></g></g></g><g
             id="g380"><text
               transform="matrix(1,0,0,-1,193.23587,222.90933)"
               id="text382"
               sodipodi:linespacing="125%"
               style="line-height:125%"><tspan
                 style="font-size:22.39999962px;font-style:italic;font-variant:normal;font-weight:normal;font-stretch:normal;text-align:start;line-height:125%;writing-mode:lr-tb;text-anchor:start;fill:#000000;fill-opacity:1;fill-rule:nonzero;stroke:none;font-family:Times New Roman;-inkscape-font-specification:'Times New Roman, Italic'"
                 x="0"
                 y="0"
                 id="tspan384" /></text>
<text
               transform="matrix(1,0,0,-1,200.28227,222.90933)"
               id="text386"
               sodipodi:linespacing="125%"
               style="line-height:125%"><tspan
                 style="font-size:22.39999962px;font-style:normal;font-variant:normal;font-weight:normal;font-stretch:normal;text-align:start;line-height:125%;writing-mode:lr-tb;text-anchor:start;fill:#000000;fill-opacity:1;fill-rule:nonzero;stroke:none;font-family:Times New Roman;-inkscape-font-specification:'Times New Roman,'"
                 x="0"
                 y="0"
                 id="tspan388" /></text>
<text
               transform="matrix(1,0,0,-1,206.50307,222.90933)"
               id="text390"
               sodipodi:linespacing="125%"
               style="line-height:125%"><tspan
                 style="font-size:22.39999962px;font-style:italic;font-variant:normal;font-weight:normal;font-stretch:normal;text-align:start;line-height:125%;writing-mode:lr-tb;text-anchor:start;fill:#000000;fill-opacity:1;fill-rule:nonzero;stroke:none;font-family:Times New Roman;-inkscape-font-specification:'Times New Roman, Italic'"
                 x="0"
                 y="0"
                 id="tspan392" /></text>
<text
               transform="matrix(1,0,0,-1,213.95267,222.90933)"
               id="text394"
               sodipodi:linespacing="125%"
               style="line-height:125%"><tspan
                 style="font-size:22.39999962px;font-style:normal;font-variant:normal;font-weight:normal;font-stretch:normal;text-align:start;line-height:125%;writing-mode:lr-tb;text-anchor:start;fill:#000000;fill-opacity:1;fill-rule:nonzero;stroke:none;font-family:Times New Roman;-inkscape-font-specification:'Times New Roman,'"
                 x="0"
                 sodipodi:role="line"
                 id="tspan396"
                 y="0" /></text>
<text
               transform="matrix(1,0,0,-1,323.79588,222.90933)"
               id="text398"
               sodipodi:linespacing="125%"
               style="line-height:125%"><tspan
                 style="font-size:22.39999962px;font-style:italic;font-variant:normal;font-weight:normal;font-stretch:normal;text-align:start;line-height:125%;writing-mode:lr-tb;text-anchor:start;fill:#000000;fill-opacity:1;fill-rule:nonzero;stroke:none;font-family:Times New Roman;-inkscape-font-specification:'Times New Roman, Italic'"
                 x="0"
                 y="0"
                 id="tspan400" /></text>
<text
               transform="matrix(1,0,0,-1,331.42337,230.58933)"
               id="text402"
               sodipodi:linespacing="125%"
               style="line-height:125%"><tspan
                 style="font-size:9.98408222px;font-style:normal;font-variant:normal;font-weight:normal;font-stretch:normal;text-align:start;line-height:125%;writing-mode:lr-tb;text-anchor:start;fill:#000000;fill-opacity:1;fill-rule:nonzero;stroke:none;font-family:Times New Roman;-inkscape-font-specification:'Times New Roman,'"
                 x="0"
                 y="0"
                 id="tspan404" /></text>
<text
               transform="matrix(1,0,0,-1,337.05893,222.90933)"
               id="text406"
               sodipodi:linespacing="125%"
               style="line-height:125%"><tspan
                 style="font-size:22.39999962px;font-style:normal;font-variant:normal;font-weight:normal;font-stretch:normal;text-align:start;line-height:125%;writing-mode:lr-tb;text-anchor:start;fill:#000000;fill-opacity:1;fill-rule:nonzero;stroke:none;font-family:Times New Roman;-inkscape-font-specification:'Times New Roman,'"
                 x="0"
                 sodipodi:role="line"
                 id="tspan408"
                 y="0" /></text>
<text
               transform="matrix(1,0,0,-1,440.66213,222.90933)"
               id="text410"
               sodipodi:linespacing="125%"
               style="line-height:125%"><tspan
                 style="font-size:22.39999962px;font-style:italic;font-variant:normal;font-weight:normal;font-stretch:normal;text-align:start;line-height:125%;writing-mode:lr-tb;text-anchor:start;fill:#000000;fill-opacity:1;fill-rule:nonzero;stroke:none;font-family:Times New Roman;-inkscape-font-specification:'Times New Roman, Italic'"
                 x="0"
                 y="0"
                 id="tspan412" /></text>
<text
               transform="matrix(1,0,0,-1,448.28394,230.58933)"
               id="text414"
               sodipodi:linespacing="125%"
               style="line-height:125%"><tspan
                 style="font-size:9.98408222px;font-style:normal;font-variant:normal;font-weight:normal;font-stretch:normal;text-align:start;line-height:125%;writing-mode:lr-tb;text-anchor:start;fill:#000000;fill-opacity:1;fill-rule:nonzero;stroke:none;font-family:Times New Roman;-inkscape-font-specification:'Times New Roman,'"
                 x="0"
                 y="0"
                 id="tspan416" /></text>
<text
               transform="matrix(1,0,0,-1,233.05667,198.90933)"
               id="text418"
               sodipodi:linespacing="125%"
               style="line-height:125%"><tspan
                 style="font-size:22.39999962px;font-style:normal;font-variant:normal;font-weight:normal;font-stretch:normal;text-align:start;line-height:125%;writing-mode:lr-tb;text-anchor:start;fill:#000000;fill-opacity:1;fill-rule:nonzero;stroke:none;font-family:Times New Roman;-inkscape-font-specification:'Times New Roman,'"
                 x="0"
                 sodipodi:role="line"
                 id="tspan420"
                 y="0" /></text>
<text
               transform="matrix(1,0,0,-1,336.67908,198.90933)"
               id="text422"
               sodipodi:linespacing="125%"
               style="line-height:125%"><tspan
                 style="font-size:22.39999962px;font-style:italic;font-variant:normal;font-weight:normal;font-stretch:normal;text-align:start;line-height:125%;writing-mode:lr-tb;text-anchor:start;fill:#000000;fill-opacity:1;fill-rule:nonzero;stroke:none;font-family:Times New Roman;-inkscape-font-specification:'Times New Roman, Italic'"
                 x="0"
                 y="0"
                 id="tspan424" /></text>
<text
               transform="matrix(1,0,0,-1,344.28587,206.58933)"
               id="text426"
               sodipodi:linespacing="125%"
               style="line-height:125%"><tspan
                 style="font-size:9.98408222px;font-style:normal;font-variant:normal;font-weight:normal;font-stretch:normal;text-align:start;line-height:125%;writing-mode:lr-tb;text-anchor:start;fill:#000000;fill-opacity:1;fill-rule:nonzero;stroke:none;font-family:Times New Roman;-inkscape-font-specification:'Times New Roman,'"
                 x="0"
                 y="0"
                 id="tspan428" /></text>
<text
               transform="matrix(1,0,0,-1,349.92142,198.90933)"
               id="text430"
               sodipodi:linespacing="125%"
               style="line-height:125%"><tspan
                 style="font-size:19.20000076px;font-style:normal;font-variant:normal;font-weight:normal;font-stretch:normal;text-align:start;line-height:125%;writing-mode:lr-tb;text-anchor:start;fill:#000000;fill-opacity:1;fill-rule:nonzero;stroke:none;font-family:Times New Roman;-inkscape-font-specification:'Times New Roman,'"
                 x="0"
                 sodipodi:role="line"
                 id="tspan432"
                 y="0" /></text>
<text
               transform="matrix(1,0,0,-1,453.52462,198.90933)"
               id="text434"
               sodipodi:linespacing="125%"
               style="line-height:125%"><tspan
                 style="font-size:22.39999962px;font-style:italic;font-variant:normal;font-weight:normal;font-stretch:normal;text-align:start;line-height:125%;writing-mode:lr-tb;text-anchor:start;fill:#000000;fill-opacity:1;fill-rule:nonzero;stroke:none;font-family:Times New Roman;-inkscape-font-specification:'Times New Roman, Italic'"
                 x="0"
                 y="0"
                 id="tspan436" /></text>
<text
               transform="matrix(1,0,0,-1,461.14642,206.58933)"
               id="text438"
               sodipodi:linespacing="125%"
               style="line-height:125%"><tspan
                 style="font-size:9.98408222px;font-style:normal;font-variant:normal;font-weight:normal;font-stretch:normal;text-align:start;line-height:125%;writing-mode:lr-tb;text-anchor:start;fill:#000000;fill-opacity:1;fill-rule:nonzero;stroke:none;font-family:Times New Roman;-inkscape-font-specification:'Times New Roman,'"
                 x="0"
                 y="0"
                 id="tspan440" /></text>
<text
               transform="matrix(1,0,0,-1,233.05667,174.90933)"
               id="text442"
               sodipodi:linespacing="125%"
               style="line-height:125%"><tspan
                 style="font-size:22.39999962px;font-style:normal;font-variant:normal;font-weight:normal;font-stretch:normal;text-align:start;line-height:125%;writing-mode:lr-tb;text-anchor:start;fill:#000000;fill-opacity:1;fill-rule:nonzero;stroke:none;font-family:Times New Roman;-inkscape-font-specification:'Times New Roman,'"
                 x="0"
                 sodipodi:role="line"
                 id="tspan444"
                 y="0" /></text>
<text
               transform="matrix(1,0,0,-1,336.67908,174.90933)"
               id="text446"
               sodipodi:linespacing="125%"
               style="line-height:125%"><tspan
                 style="font-size:22.39999962px;font-style:italic;font-variant:normal;font-weight:normal;font-stretch:normal;text-align:start;line-height:125%;writing-mode:lr-tb;text-anchor:start;fill:#000000;fill-opacity:1;fill-rule:nonzero;stroke:none;font-family:Times New Roman;-inkscape-font-specification:'Times New Roman, Italic'"
                 x="0"
                 y="0"
                 id="tspan448" /></text>
<text
               transform="matrix(1,0,0,-1,344.28587,182.58933)"
               id="text450"
               sodipodi:linespacing="125%"
               style="line-height:125%"><tspan
                 style="font-size:9.98408222px;font-style:normal;font-variant:normal;font-weight:normal;font-stretch:normal;text-align:start;line-height:125%;writing-mode:lr-tb;text-anchor:start;fill:#000000;fill-opacity:1;fill-rule:nonzero;stroke:none;font-family:Times New Roman;-inkscape-font-specification:'Times New Roman,'"
                 x="0"
                 y="0"
                 id="tspan452" /></text>
</g></g></g></g><flowRoot
       xml:space="preserve"
       id="flowRoot3429"
       style="font-size:24px;font-style:normal;font-variant:normal;font-weight:normal;font-stretch:normal;text-align:start;line-height:125%;letter-spacing:0px;word-spacing:0px;writing-mode:lr-tb;text-anchor:start;fill:#000000;fill-opacity:1;stroke:none;font-family:Ubuntu;-inkscape-font-specification:Ubuntu"
       transform="matrix(0.8,0,0,-0.8,0,407)"><flowRegion
         id="flowRegion3431"><rect
           id="rect3433"
           width="125.55645"
           height="46.134697"
           x="286.7359"
           y="241.28555" /></flowRegion><flowPara
         id="flowPara3435" /></flowRoot></g></svg>